{"glyphs":{"0":{"ha":643,"x_min":50,"x_max":593,"o":"m 113 107 q 50 497 50 229 q 116 886 50 765 q 324 1007 182 1007 q 529 888 465 1007 q 593 498 593 770 q 528 106 593 227 q 320 -14 464 -14 q 113 107 176 -14 m 321 850 q 253 774 271 850 q 235 494 235 699 q 253 216 235 289 q 321 143 271 143 q 373 174 355 143 q 400 278 392 205 q 408 526 408 350 q 389 776 408 702 q 321 850 370 850 z "},"1":{"ha":643,"x_min":66,"x_max":494,"o":"m 494 0 l 313 0 l 313 582 q 322 800 313 673 q 288 760 317 793 q 170 635 260 727 l 66 747 l 330 991 l 494 991 l 494 0 z "},"2":{"ha":643,"x_min":41,"x_max":582,"o":"m 306 1006 q 493 936 426 1006 q 561 739 561 865 q 511 529 561 631 q 448 420 487 477 q 257 170 409 363 l 257 164 l 582 164 l 582 0 l 50 0 l 50 138 l 227 387 q 326 538 298 490 q 379 730 379 637 q 354 815 379 786 q 291 844 330 844 q 220 825 252 844 q 144 757 189 806 l 41 865 q 175 976 114 947 q 306 1006 235 1006 z "},"3":{"ha":643,"x_min":43,"x_max":582,"o":"m 296 1006 q 492 942 422 1006 q 562 768 562 879 q 516 612 562 675 q 386 524 470 548 l 386 518 q 531 444 481 503 q 582 286 582 385 q 497 68 582 149 q 264 -14 412 -14 q 43 33 132 -14 l 43 199 q 240 140 140 140 q 359 177 320 140 q 399 292 399 214 q 216 440 399 440 l 160 440 l 160 578 l 214 578 q 338 616 295 578 q 380 729 380 654 q 353 818 380 787 q 275 848 326 848 q 126 783 198 848 l 43 905 q 296 1006 143 1006 z "},"4":{"ha":643,"x_min":25,"x_max":623,"o":"m 522 361 l 623 361 l 623 208 l 522 208 l 522 0 l 349 0 l 349 208 l 25 208 l 25 358 l 325 991 l 522 991 l 522 361 m 349 361 l 349 570 l 352 662 l 357 750 l 351 750 q 300 616 330 683 l 180 361 l 349 361 z "},"5":{"ha":643,"x_min":61,"x_max":583,"o":"m 530 827 l 265 827 l 252 612 q 339 621 289 621 q 517 542 451 621 q 583 329 583 464 q 501 77 583 168 q 272 -14 418 -14 q 61 36 141 -14 l 61 208 q 150 164 96 183 q 252 144 204 144 q 397 314 397 144 q 256 472 397 472 q 136 450 200 472 l 77 494 l 107 991 l 530 991 l 530 827 z "},"6":{"ha":643,"x_min":50,"x_max":593,"o":"m 382 640 q 537 559 482 640 q 593 324 593 477 q 519 78 593 171 q 317 -14 446 -14 q 119 96 188 -14 q 50 421 50 206 q 144 865 50 725 q 432 1004 239 1004 q 539 993 494 1004 l 539 840 q 447 851 494 851 q 245 715 297 851 q 214 526 218 646 l 221 526 q 382 640 269 640 m 412 319 q 412 362 412 319 q 390 448 412 405 q 326 492 368 492 q 258 450 283 492 q 233 346 233 409 q 256 195 233 248 q 322 142 279 142 q 388 188 364 142 q 412 319 412 234 z "},"7":{"ha":643,"x_min":54,"x_max":586,"o":"m 54 827 l 54 990 l 586 990 l 586 865 l 313 0 l 122 0 l 400 827 l 54 827 z "},"8":{"ha":643,"x_min":49,"x_max":595,"o":"m 66 760 q 138 938 66 871 q 324 1004 210 1004 q 508 938 439 1004 q 576 760 576 872 q 543 632 576 688 q 435 525 510 575 q 557 400 520 465 q 595 257 595 336 q 520 61 595 136 q 320 -14 446 -14 q 121 55 194 -14 q 49 252 49 124 q 197 517 49 421 q 96 630 127 573 q 66 760 66 688 m 321 861 q 243 753 243 861 q 259 675 243 708 q 322 604 275 642 q 383 672 366 638 q 400 753 400 707 q 321 861 400 861 m 314 439 q 246 363 269 405 q 224 261 224 321 q 249 166 224 201 q 321 131 274 131 q 394 165 369 131 q 419 261 419 200 q 400 341 419 304 q 323 429 380 378 l 314 439 z "},"9":{"ha":643,"x_min":46,"x_max":589,"o":"m 258 350 q 102 432 158 350 q 46 667 46 515 q 119 911 46 819 q 314 1004 192 1004 q 518 890 447 1004 q 589 559 589 775 q 205 -14 589 -14 q 100 -3 140 -14 l 100 153 q 186 138 144 138 q 358 217 300 138 q 422 464 416 296 l 416 464 q 354 380 394 410 q 258 350 313 350 m 407 644 q 382 790 407 733 q 315 847 357 847 q 250 802 273 847 q 227 670 227 756 q 311 498 227 498 q 378 543 350 498 q 407 644 407 587 z "},"\r":{"ha":361,"x_min":0,"x_max":0,"o":""}," ":{"ha":343,"x_min":0,"x_max":0,"o":""},"!":{"ha":376,"x_min":75,"x_max":300,"o":"m 262 319 l 114 319 l 81 991 l 297 991 l 262 319 m 104 175 q 118 190 104 175 q 187 204 132 204 q 271 175 242 204 q 300 93 300 146 q 270 11 300 40 q 187 -18 241 -18 q 104 11 133 -18 q 75 93 75 40 q 104 175 75 146 z "},"\"":{"ha":619,"x_min":82,"x_max":538,"o":"m 232 633 l 110 633 l 82 991 l 260 991 l 232 633 m 510 633 l 387 633 l 359 991 l 538 991 l 510 633 z "},"#":{"ha":755,"x_min":28,"x_max":729,"o":"m 729 711 l 729 581 l 581 581 l 555 410 l 693 410 l 693 278 l 538 278 l 497 0 l 367 0 l 408 278 l 285 278 l 245 0 l 115 0 l 155 278 l 28 278 l 28 410 l 175 410 l 200 581 l 64 581 l 64 711 l 220 711 l 260 991 l 387 991 l 347 711 l 471 711 l 513 991 l 640 991 l 600 711 l 729 711 m 328 581 l 304 410 l 427 410 l 452 581 l 328 581 z "},"$":{"ha":643,"x_min":50,"x_max":593,"o":"m 359 1055 l 359 947 q 568 889 466 940 l 514 745 q 359 793 427 787 l 359 578 q 380 568 380 570 q 510 496 468 530 q 572 416 552 461 q 593 310 593 371 q 532 137 593 202 q 359 61 471 73 l 359 -81 l 281 -81 l 281 58 q 50 115 152 62 l 50 282 q 281 207 170 212 l 281 436 l 257 447 q 96 560 142 502 q 50 714 50 618 q 111 872 50 810 q 281 946 171 934 l 281 1055 l 359 1055 m 210 708 q 226 652 210 673 q 281 615 242 631 l 281 793 q 210 708 210 781 m 433 306 q 420 357 433 336 q 359 400 406 377 l 359 211 q 433 306 433 224 z "},"%":{"ha":1054,"x_min":43,"x_max":1011,"o":"m 239 1006 q 439 696 439 1006 q 388 463 439 543 q 237 383 336 383 q 91 460 138 383 q 43 693 43 538 q 239 1006 43 1006 m 392 0 l 252 0 l 660 991 l 802 991 l 392 0 m 294 694 q 294 741 294 694 q 281 831 294 788 q 240 875 268 875 q 199 832 212 875 q 187 694 187 789 q 199 557 187 600 q 240 514 212 514 q 281 557 269 514 q 294 694 294 600 m 811 610 q 1011 300 1011 610 q 960 67 1011 147 q 809 -12 909 -12 q 663 64 710 -12 q 615 297 615 141 q 811 610 615 610 m 853 435 q 847 457 853 435 q 812 478 840 478 q 772 435 785 478 q 760 298 760 393 q 772 161 760 203 q 812 118 784 118 q 854 161 841 118 q 867 298 867 204 q 853 435 867 392 z "},"&":{"ha":807,"x_min":40,"x_max":794,"o":"m 543 69 q 317 -14 450 -14 q 112 60 184 -14 q 40 265 40 134 q 205 547 40 433 q 137 674 154 627 q 119 774 119 721 q 185 943 119 880 q 356 1006 251 1006 q 522 947 461 1006 q 583 785 583 888 q 545 648 583 712 q 421 519 507 584 l 559 325 q 618 521 592 385 l 775 521 q 663 183 750 332 l 794 0 l 591 0 l 543 69 m 416 767 q 416 789 416 767 q 399 831 416 810 q 353 852 382 852 q 306 830 323 852 q 288 770 288 808 q 301 702 288 732 q 343 633 315 671 q 400 694 385 665 q 416 767 416 724 m 222 282 q 252 183 222 219 q 334 147 282 147 q 453 197 401 147 l 290 432 q 222 282 222 371 z "},"'":{"ha":342,"x_min":82,"x_max":260,"o":"m 232 633 l 110 633 l 82 991 l 260 991 l 232 633 z "},"(":{"ha":452,"x_min":50,"x_max":414,"o":"m 414 991 q 270 705 319 862 q 221 381 221 549 q 272 58 221 214 q 412 -220 323 -98 l 254 -220 q 102 50 155 -104 q 50 382 50 203 q 103 717 50 560 q 254 991 155 873 l 414 991 z "},")":{"ha":452,"x_min":37,"x_max":401,"o":"m 197 991 q 350 714 298 871 q 401 380 401 557 q 349 48 401 202 q 197 -220 296 -106 l 39 -220 q 181 61 131 -94 q 231 382 231 216 q 181 705 231 549 q 37 991 132 862 l 197 991 z "},"*":{"ha":646,"x_min":36,"x_max":611,"o":"m 378 847 l 589 905 l 611 753 l 418 741 l 543 574 l 408 500 l 321 676 l 241 500 l 103 574 l 227 741 l 36 755 l 61 905 l 267 847 l 241 1055 l 403 1055 l 378 847 z "},"+":{"ha":623,"x_min":72,"x_max":550,"o":"m 378 559 l 550 559 l 550 419 l 378 419 l 378 170 l 244 170 l 244 419 l 72 419 l 72 559 l 244 559 l 244 812 l 378 812 l 378 559 z "},",":{"ha":375,"x_min":35,"x_max":292,"o":"m 282 161 l 292 146 q 172 -179 256 7 l 35 -179 q 103 161 79 3 l 282 161 z "},"-":{"ha":439,"x_min":49,"x_max":390,"o":"m 390 293 l 49 293 l 49 452 l 390 452 l 390 293 z "},".":{"ha":375,"x_min":75,"x_max":300,"o":"m 104 175 q 118 190 104 175 q 187 204 132 204 q 271 175 242 204 q 300 93 300 146 q 270 11 300 40 q 187 -18 241 -18 q 104 11 133 -18 q 75 93 75 40 q 104 175 75 146 z "},"/":{"ha":562,"x_min":11,"x_max":554,"o":"m 184 0 l 11 0 l 380 991 l 554 991 l 184 0 z "},":":{"ha":375,"x_min":75,"x_max":300,"o":"m 104 742 q 118 757 104 742 q 187 771 132 771 q 271 742 242 771 q 300 660 300 713 q 270 578 300 607 q 187 549 241 549 q 104 578 133 549 q 75 660 75 607 q 104 742 75 713 m 104 175 q 118 190 104 175 q 187 204 132 204 q 271 175 242 204 q 300 93 300 146 q 270 11 300 40 q 187 -18 241 -18 q 104 11 133 -18 q 75 93 75 40 q 104 175 75 146 z "},";":{"ha":375,"x_min":35,"x_max":300,"o":"m 104 742 q 118 757 104 742 q 187 771 132 771 q 271 742 242 771 q 300 660 300 713 q 270 578 300 607 q 187 549 241 549 q 104 578 133 549 q 75 660 75 607 q 104 742 75 713 m 282 161 l 292 146 q 172 -179 256 7 l 35 -179 q 103 161 79 3 l 282 161 z "},"<":{"ha":623,"x_min":72,"x_max":550,"o":"m 550 685 l 220 490 l 550 294 l 550 142 l 72 437 l 72 543 l 550 838 l 550 685 z "},"=":{"ha":623,"x_min":72,"x_max":550,"o":"m 550 553 l 72 553 l 72 692 l 550 692 l 550 553 m 550 286 l 72 286 l 72 427 l 550 427 l 550 286 z "},">":{"ha":623,"x_min":72,"x_max":550,"o":"m 550 543 l 550 437 l 72 142 l 72 294 l 404 490 l 72 685 l 72 838 l 550 543 z "},"?":{"ha":530,"x_min":17,"x_max":494,"o":"m 253 1006 q 430 944 365 1006 q 494 771 494 882 q 472 640 494 693 q 379 510 450 587 q 321 434 334 461 q 309 361 309 407 l 309 319 l 149 319 l 149 367 q 169 480 149 431 q 241 585 189 528 q 306 672 293 641 q 319 749 319 703 q 298 823 319 796 q 235 850 277 850 q 81 798 161 850 l 17 933 q 253 1006 124 1006 m 145 175 q 160 190 145 175 q 229 204 174 204 q 313 175 284 204 q 342 93 342 146 q 312 11 342 41 q 229 -18 283 -18 q 146 11 175 -18 q 117 93 117 40 q 145 175 117 146 z "},"@":{"ha":1007,"x_min":50,"x_max":957,"o":"m 492 -114 q 260 -52 361 -114 q 104 127 159 10 q 50 395 50 243 q 50 403 50 399 q 111 715 50 578 q 282 927 171 852 q 536 1002 394 1002 q 846 872 735 1002 q 957 507 957 742 q 901 249 957 342 q 745 157 845 157 q 663 183 698 157 q 616 252 627 209 l 611 252 q 551 182 587 208 q 469 157 515 157 q 338 220 385 157 q 292 410 292 284 q 358 651 292 560 q 538 742 425 742 q 711 713 619 742 l 697 397 l 697 371 q 709 295 697 317 q 746 273 720 273 q 800 337 780 273 q 819 509 819 401 q 745 786 819 692 q 533 880 671 880 q 353 820 431 880 q 232 652 274 760 q 189 410 189 545 q 272 114 189 221 q 501 8 355 8 q 749 69 621 8 l 749 -54 q 500 -114 637 -114 q 492 -114 496 -114 m 530 625 q 459 565 487 625 q 432 410 432 504 q 447 309 432 345 q 494 273 463 273 q 542 318 525 273 q 564 463 558 363 l 572 618 q 530 625 555 625 z "},"A":{"ha":742,"x_min":0,"x_max":742,"o":"m 742 0 l 557 0 l 500 250 l 241 250 l 184 0 l 0 0 l 245 996 l 496 996 l 742 0 m 465 414 l 412 644 q 392 744 411 650 q 371 863 374 838 q 349 737 361 800 q 278 414 337 674 l 465 414 z "},"B":{"ha":704,"x_min":87,"x_max":656,"o":"m 87 991 l 340 991 q 566 931 495 991 q 636 741 636 871 q 599 596 636 654 q 497 526 562 538 l 497 519 q 618 442 580 499 q 656 288 656 385 q 584 76 656 153 q 386 0 511 0 l 87 0 l 87 991 m 261 832 l 261 593 l 346 593 q 427 623 403 593 q 452 715 452 653 q 425 805 452 778 q 339 832 398 832 l 261 832 m 261 439 l 261 161 l 354 161 q 440 197 412 161 q 468 306 468 233 q 351 439 468 439 l 261 439 z "},"C":{"ha":643,"x_min":57,"x_max":618,"o":"m 404 -14 q 146 119 237 -14 q 57 494 57 252 q 149 871 57 736 q 407 1006 241 1006 q 618 939 515 1006 l 557 789 q 486 830 518 815 q 416 844 453 844 q 291 752 337 844 q 245 493 245 660 q 425 149 245 149 q 590 199 503 149 l 590 35 q 404 -14 517 -14 z "},"D":{"ha":775,"x_min":87,"x_max":718,"o":"m 87 991 l 353 991 q 622 864 525 991 q 718 498 718 736 q 618 130 718 259 q 330 0 518 0 l 87 0 l 87 991 m 272 832 l 272 161 l 332 161 q 480 245 432 161 q 529 500 529 330 q 346 832 529 832 l 272 832 z "},"E":{"ha":591,"x_min":87,"x_max":534,"o":"m 534 832 l 272 832 l 272 596 l 515 596 l 515 436 l 272 436 l 272 161 l 534 161 l 534 0 l 87 0 l 87 991 l 534 991 l 534 832 z "},"F":{"ha":568,"x_min":87,"x_max":532,"o":"m 532 832 l 271 832 l 271 557 l 514 557 l 514 397 l 271 397 l 271 0 l 87 0 l 87 991 l 532 991 l 532 832 z "},"G":{"ha":754,"x_min":57,"x_max":690,"o":"m 690 550 l 690 41 q 416 -14 562 -14 q 150 118 243 -14 q 57 493 57 250 q 163 871 57 736 q 463 1006 270 1006 q 689 945 581 1006 l 631 794 q 473 843 546 843 q 307 749 368 843 q 245 490 245 655 q 290 237 245 326 q 419 149 334 149 q 510 160 463 149 l 510 387 l 387 387 l 387 550 l 690 550 z "},"H":{"ha":787,"x_min":87,"x_max":700,"o":"m 700 0 l 515 0 l 515 435 l 272 435 l 272 0 l 87 0 l 87 991 l 272 991 l 272 597 l 515 597 l 515 991 l 700 991 l 700 0 z "},"I":{"ha":416,"x_min":121,"x_max":294,"o":"m 294 0 l 121 0 l 121 991 l 294 991 l 294 0 z "},"J":{"ha":359,"x_min":-104,"x_max":272,"o":"m 272 991 l 272 31 q 272 23 272 26 q 200 -201 272 -116 q 13 -286 127 -286 q 9 -286 12 -286 q -104 -269 -64 -286 l -104 -109 q -21 -122 -60 -122 q 61 -86 35 -122 q 87 21 87 -51 l 87 991 l 272 991 z "},"K":{"ha":705,"x_min":87,"x_max":705,"o":"m 272 0 l 87 0 l 87 991 l 272 991 l 272 500 l 336 648 l 505 991 l 703 991 l 473 562 l 705 0 l 509 0 l 346 424 l 272 350 l 272 0 z "},"L":{"ha":558,"x_min":87,"x_max":528,"o":"m 272 161 l 528 161 l 528 0 l 87 0 l 87 991 l 272 991 l 272 161 z "},"M":{"ha":1089,"x_min":87,"x_max":1002,"o":"m 1002 0 l 827 0 l 827 672 q 836 843 827 752 l 831 843 l 643 0 l 441 0 l 253 844 l 245 844 q 258 665 258 749 l 258 0 l 87 0 l 87 991 l 371 991 l 541 212 l 546 212 l 714 991 l 1002 991 l 1002 0 z "},"N":{"ha":869,"x_min":87,"x_max":782,"o":"m 782 0 l 557 0 l 250 718 l 241 718 q 258 542 258 637 l 258 0 l 87 0 l 87 991 l 314 991 l 618 281 l 625 281 q 612 450 612 350 l 612 991 l 782 991 l 782 0 z "},"O":{"ha":827,"x_min":57,"x_max":770,"o":"m 149 118 q 57 497 57 250 q 150 876 57 745 q 414 1007 242 1007 q 678 875 587 1007 q 770 497 770 743 q 677 118 770 250 q 413 -14 585 -14 q 149 118 242 -14 m 415 844 q 289 756 332 844 q 245 498 245 668 q 288 239 245 328 q 414 150 331 150 q 581 497 581 150 q 415 844 581 844 z "},"P":{"ha":665,"x_min":87,"x_max":628,"o":"m 87 991 l 339 991 q 628 686 628 991 q 548 444 628 528 q 318 359 469 359 l 272 359 l 272 0 l 87 0 l 87 991 m 272 832 l 272 519 l 307 519 q 409 557 376 519 q 441 676 441 595 q 411 794 441 757 q 317 832 380 832 l 272 832 z "},"Q":{"ha":827,"x_min":57,"x_max":774,"o":"m 414 -14 q 149 118 242 -14 q 57 497 57 250 q 150 876 57 745 q 414 1007 242 1007 q 678 875 587 1007 q 770 497 770 743 q 591 35 770 151 l 774 -236 l 561 -236 l 424 -14 l 414 -14 m 415 844 q 289 756 332 844 q 245 498 245 668 q 288 239 245 328 q 414 150 331 150 q 581 497 581 150 q 415 844 581 844 z "},"R":{"ha":694,"x_min":87,"x_max":692,"o":"m 87 991 l 329 991 q 555 919 481 991 q 628 697 628 846 q 501 435 628 509 l 692 0 l 494 0 l 338 386 l 272 386 l 272 0 l 87 0 l 87 991 m 272 832 l 272 545 l 319 545 q 412 581 383 545 q 441 692 441 617 q 412 799 441 766 q 318 832 382 832 l 272 832 z "},"S":{"ha":574,"x_min":46,"x_max":539,"o":"m 250 147 q 330 176 302 147 q 357 254 357 204 q 325 346 357 304 q 226 433 294 387 q 123 522 159 479 q 72 613 90 562 q 54 729 54 663 q 125 931 54 857 q 313 1006 196 1006 q 534 942 430 1006 l 473 794 q 329 843 389 843 q 260 814 285 843 q 236 734 236 785 q 264 646 236 684 q 366 561 294 608 q 500 428 464 495 q 539 273 539 359 q 469 60 539 134 q 268 -14 399 -14 q 46 37 137 -14 l 46 220 q 250 147 157 147 z "},"T":{"ha":600,"x_min":18,"x_max":582,"o":"m 582 829 l 392 829 l 392 0 l 208 0 l 208 829 l 18 829 l 18 991 l 582 991 l 582 829 z "},"U":{"ha":781,"x_min":83,"x_max":697,"o":"m 697 991 l 697 350 q 617 80 697 173 q 387 -14 537 -14 q 160 79 237 -14 q 83 353 83 172 l 83 991 l 267 991 l 267 339 q 392 150 267 150 q 482 198 450 150 q 514 335 514 246 l 514 991 l 697 991 z "},"V":{"ha":700,"x_min":0,"x_max":700,"o":"m 467 0 l 232 0 l 0 991 l 186 991 l 315 386 q 350 164 332 309 q 386 386 363 284 l 514 991 l 700 991 l 467 0 z "},"W":{"ha":1100,"x_min":12,"x_max":1088,"o":"m 909 0 l 679 0 l 582 519 q 550 771 559 629 l 545 721 l 517 517 l 422 0 l 192 0 l 12 991 l 193 991 l 282 432 q 317 168 296 345 q 349 428 334 356 l 454 991 l 646 991 l 751 428 q 785 167 772 308 q 819 432 808 370 l 905 991 l 1088 991 l 909 0 z "},"X":{"ha":656,"x_min":0,"x_max":657,"o":"m 431 507 l 657 0 l 465 0 l 323 355 l 192 0 l 0 0 l 227 515 l 17 991 l 203 991 l 334 665 l 447 991 l 640 991 l 431 507 z "},"Y":{"ha":652,"x_min":0,"x_max":652,"o":"m 416 0 l 235 0 l 235 390 l 0 991 l 195 991 l 326 600 l 458 991 l 652 991 l 416 397 l 416 0 z "},"Z":{"ha":595,"x_min":29,"x_max":566,"o":"m 566 161 l 566 0 l 29 0 l 29 129 l 346 831 l 39 831 l 39 991 l 555 991 l 555 863 l 239 161 l 566 161 z "},"[":{"ha":440,"x_min":90,"x_max":408,"o":"m 408 857 l 257 857 l 257 -85 l 408 -85 l 408 -220 l 90 -220 l 90 991 l 408 991 l 408 857 z "},"\\":{"ha":562,"x_min":9,"x_max":554,"o":"m 554 0 l 379 0 l 9 991 l 184 991 l 554 0 z "},"]":{"ha":440,"x_min":32,"x_max":350,"o":"m 350 -220 l 32 -220 l 32 -85 l 183 -85 l 183 857 l 32 857 l 32 991 l 350 991 l 350 -220 z "},"^":{"ha":739,"x_min":9,"x_max":732,"o":"m 732 357 l 579 357 l 355 804 l 160 357 l 9 357 l 306 997 l 397 997 l 732 357 z "},"_":{"ha":472,"x_min":-3,"x_max":475,"o":"m 475 -220 l -3 -220 l -3 -125 l 475 -125 l 475 -220 z "},"`":{"ha":755,"x_min":211,"x_max":543,"o":"m 211 1064 l 427 1064 q 481 958 444 1027 q 543 860 518 893 l 543 842 l 416 842 q 295 952 362 885 q 211 1050 227 1020 l 211 1064 z "},"a":{"ha":648,"x_min":37,"x_max":579,"o":"m 89 700 q 327 771 201 771 q 516 703 453 771 q 579 507 579 634 l 579 0 l 447 0 l 411 103 l 407 103 q 325 12 368 37 q 216 -14 282 -14 q 85 48 133 -14 q 37 225 37 111 q 102 399 37 340 q 298 464 167 458 l 399 468 l 399 522 q 307 628 399 628 q 151 575 240 628 l 89 700 m 224 221 q 290 127 224 127 q 369 172 340 127 q 399 290 399 216 l 399 354 l 343 351 q 253 316 281 348 q 224 221 224 284 z "},"b":{"ha":689,"x_min":77,"x_max":639,"o":"m 257 808 q 248 657 257 779 l 257 657 q 327 744 289 718 q 418 770 366 770 q 580 667 521 770 q 639 378 639 565 q 579 89 639 191 q 415 -14 520 -14 q 324 9 363 -14 q 252 86 286 32 l 240 86 l 210 0 l 77 0 l 77 1055 l 257 1055 l 257 808 m 257 380 q 280 195 257 248 q 357 142 303 142 q 454 379 454 142 q 355 616 454 616 q 281 568 304 616 q 257 399 258 519 l 257 380 z "},"c":{"ha":515,"x_min":50,"x_max":494,"o":"m 326 -14 q 121 85 191 -14 q 50 378 50 183 q 117 672 50 574 q 323 770 184 770 q 494 722 418 770 l 443 582 q 343 615 387 615 q 260 556 286 615 q 235 376 235 497 q 260 199 235 256 q 342 142 286 142 q 484 189 410 142 l 484 31 q 326 -14 412 -14 z "},"d":{"ha":689,"x_min":50,"x_max":614,"o":"m 614 0 l 479 0 l 449 98 l 443 98 q 278 -14 385 -14 q 111 90 171 -14 q 50 376 50 193 q 109 665 50 560 q 272 770 168 770 q 361 744 324 770 q 431 659 399 718 l 441 659 q 433 803 433 761 l 433 1055 l 614 1055 l 614 0 m 432 375 q 409 559 432 505 q 332 614 385 614 q 236 374 236 614 q 259 197 236 255 q 333 139 283 139 q 407 184 384 139 q 432 351 430 229 l 432 375 z "},"e":{"ha":639,"x_min":50,"x_max":596,"o":"m 355 -14 q 132 87 214 -14 q 50 374 50 187 q 124 665 50 560 q 326 770 199 770 q 525 680 454 770 q 596 428 596 590 l 596 332 l 233 332 q 274 182 235 232 q 383 132 313 132 q 564 187 471 132 l 564 39 q 355 -14 477 -14 m 419 463 q 394 588 418 545 q 330 631 370 631 q 264 588 289 631 q 236 463 240 546 l 419 463 z "},"f":{"ha":415,"x_min":20,"x_max":464,"o":"m 107 814 q 160 1002 107 941 q 328 1063 213 1063 q 464 1032 401 1063 l 416 895 q 349 911 382 911 q 302 886 316 911 q 288 811 288 862 l 288 755 l 412 755 l 412 612 l 288 612 l 288 0 l 107 0 l 107 612 l 20 612 l 20 703 l 107 757 l 107 814 z "},"g":{"ha":635,"x_min":12,"x_max":621,"o":"m 306 150 l 415 150 q 564 97 512 150 q 615 -58 615 45 q 527 -262 615 -191 q 273 -334 438 -334 q 80 -279 148 -334 q 12 -123 12 -224 q 51 -13 12 -60 q 158 57 90 35 q 101 100 122 71 q 79 168 79 128 q 105 242 79 208 q 157 292 118 259 q 83 379 111 320 q 56 510 56 437 q 121 702 56 635 q 307 770 186 770 q 360 764 329 770 q 406 754 391 759 l 621 754 l 621 648 l 530 628 q 557 509 557 581 q 492 321 557 389 q 310 253 427 253 q 260 258 277 253 q 242 241 248 248 q 230 222 236 235 q 224 197 224 210 q 306 150 224 150 m 307 648 q 232 512 232 648 q 307 375 232 375 q 380 512 380 375 q 307 648 380 648 m 345 -8 l 257 -8 q 198 -36 220 -8 q 176 -109 176 -63 q 204 -179 176 -155 q 285 -203 233 -203 q 407 -172 366 -203 q 449 -86 449 -142 q 427 -26 449 -43 q 345 -8 405 -8 z "},"h":{"ha":704,"x_min":77,"x_max":635,"o":"m 257 1055 l 257 821 q 249 659 257 776 l 258 659 q 425 770 313 770 q 582 700 529 770 q 635 493 635 629 l 635 0 l 453 0 l 453 450 q 370 616 453 616 q 283 553 309 616 q 257 363 257 490 l 257 0 l 77 0 l 77 1055 l 257 1055 z "},"i":{"ha":336,"x_min":71,"x_max":267,"o":"m 71 952 q 71 975 71 952 q 97 1024 71 998 q 168 1050 123 1050 q 240 1024 214 1050 q 267 952 267 998 q 240 882 267 907 q 169 856 213 856 q 97 882 124 856 q 71 952 71 907 m 258 0 l 78 0 l 78 755 l 258 755 l 258 0 z "},"j":{"ha":339,"x_min":-40,"x_max":271,"o":"m 75 952 q 75 975 75 952 q 101 1024 75 998 q 173 1050 127 1050 q 244 1024 218 1050 q 271 953 271 998 q 244 882 271 908 q 174 856 218 856 q 102 881 129 856 q 75 952 75 907 m 262 755 l 262 -87 q 208 -270 262 -205 q 54 -334 153 -334 q -40 -317 -3 -334 l -40 -167 q 18 -179 -8 -179 q 82 -64 82 -179 l 82 755 l 262 755 z "},"k":{"ha":654,"x_min":77,"x_max":653,"o":"m 257 0 l 77 0 l 77 1055 l 257 1055 l 257 558 l 249 407 l 254 407 l 300 497 l 449 755 l 640 755 l 449 446 l 653 0 l 464 0 l 328 319 l 257 256 l 257 0 z "},"l":{"ha":332,"x_min":77,"x_max":257,"o":"m 257 0 l 77 0 l 77 1055 l 257 1055 l 257 0 z "},"m":{"ha":1078,"x_min":77,"x_max":1008,"o":"m 804 770 q 957 699 905 770 q 1008 493 1008 629 l 1008 0 l 827 0 l 827 450 q 745 616 827 616 q 660 557 686 616 q 633 367 633 498 l 633 0 l 452 0 l 452 450 q 368 616 452 616 q 283 557 310 616 q 257 363 257 498 l 257 0 l 77 0 l 77 755 l 220 755 l 241 659 l 253 659 q 325 742 279 714 q 428 770 372 770 q 612 639 567 770 l 619 639 q 804 770 677 770 z "},"n":{"ha":704,"x_min":77,"x_max":635,"o":"m 429 770 q 635 493 635 770 l 635 0 l 453 0 l 453 450 q 433 575 453 534 q 370 616 413 616 q 284 559 312 616 q 257 363 257 501 l 257 0 l 77 0 l 77 755 l 220 755 l 241 659 l 253 659 q 323 741 277 711 q 429 770 369 770 z "},"o":{"ha":686,"x_min":50,"x_max":636,"o":"m 50 379 q 128 667 50 564 q 342 770 206 770 q 557 664 479 770 q 636 376 636 559 q 557 90 636 194 q 342 -14 479 -14 q 337 -14 339 -14 q 130 93 210 -14 q 50 370 50 199 q 50 379 50 375 m 426 557 q 412 586 426 557 q 343 615 399 615 q 261 557 287 615 q 235 379 235 499 q 261 200 235 259 q 343 140 287 140 q 452 379 452 140 q 426 557 452 498 z "},"p":{"ha":689,"x_min":77,"x_max":639,"o":"m 256 657 q 417 770 311 770 q 581 667 523 770 q 639 380 639 565 q 579 91 639 196 q 414 -14 519 -14 q 326 9 363 -14 q 257 86 289 32 l 248 86 q 258 -25 258 -3 l 258 -334 l 77 -334 l 77 755 l 216 755 l 248 657 l 256 657 m 257 380 q 281 198 257 255 q 359 142 305 142 q 454 379 454 142 q 358 616 454 616 q 282 567 305 616 q 257 404 258 518 l 257 380 z "},"q":{"ha":689,"x_min":50,"x_max":614,"o":"m 435 98 q 275 -14 380 -14 q 110 89 170 -14 q 50 376 50 192 q 109 665 50 561 q 271 770 168 770 q 363 744 324 770 q 432 659 401 718 l 441 659 l 461 755 l 614 755 l 614 -334 l 433 -334 l 433 -16 q 441 98 433 9 l 435 98 m 432 375 q 408 557 432 500 q 330 614 385 614 q 236 374 236 614 q 259 195 236 253 q 333 138 281 138 q 408 188 384 138 q 432 350 431 238 l 432 375 z "},"r":{"ha":468,"x_min":77,"x_max":464,"o":"m 399 770 q 464 760 433 770 l 443 585 q 393 591 425 591 q 292 539 328 591 q 257 389 257 488 l 257 0 l 77 0 l 77 755 l 225 755 l 245 637 l 252 637 q 316 739 281 708 q 399 770 351 770 z "},"s":{"ha":519,"x_min":41,"x_max":482,"o":"m 41 187 q 129 144 80 161 q 217 127 177 127 q 280 148 258 127 q 302 203 302 168 q 279 264 302 238 q 195 326 255 290 q 77 430 113 375 q 41 561 41 486 q 107 714 41 658 q 281 770 174 770 q 478 717 389 770 l 419 587 q 292 627 347 627 q 240 609 258 627 q 222 562 222 591 q 243 510 222 532 q 329 447 264 487 q 422 378 394 408 q 482 221 482 315 q 417 48 482 109 q 233 -14 351 -14 q 41 31 115 -14 l 41 187 z "},"t":{"ha":450,"x_min":22,"x_max":421,"o":"m 278 755 l 415 755 l 415 612 l 278 612 l 278 215 q 339 139 278 139 q 421 158 378 139 l 421 17 q 289 -14 377 -14 q 96 221 96 -14 l 96 612 l 22 612 l 22 693 l 117 758 l 163 918 l 278 918 l 278 755 z "},"u":{"ha":704,"x_min":69,"x_max":629,"o":"m 629 0 l 485 0 l 463 97 l 453 97 q 381 16 428 45 q 275 -14 334 -14 q 69 262 69 -14 l 69 755 l 252 755 l 252 306 q 272 180 252 222 q 335 139 292 139 q 420 197 393 139 q 447 393 447 254 l 447 755 l 629 755 l 629 0 z "},"v":{"ha":619,"x_min":0,"x_max":619,"o":"m 421 0 l 197 0 l 0 755 l 187 755 l 283 318 q 298 232 290 288 q 309 144 306 176 l 311 144 q 328 273 313 184 q 432 755 331 295 l 619 755 l 421 0 z "},"w":{"ha":1003,"x_min":14,"x_max":989,"o":"m 838 0 l 603 0 l 528 439 l 501 624 l 498 624 q 481 484 488 534 q 396 0 473 434 l 164 0 l 14 755 l 195 755 l 264 339 q 286 136 276 270 l 290 136 q 311 340 292 200 l 386 755 l 618 755 l 692 339 q 714 136 705 273 l 717 136 q 741 339 726 254 l 812 755 l 989 755 l 838 0 z "},"x":{"ha":603,"x_min":9,"x_max":593,"o":"m 395 386 l 593 0 l 404 0 l 297 241 l 197 0 l 9 0 l 207 386 l 18 755 l 205 755 l 306 525 l 399 755 l 585 755 l 395 386 z "},"y":{"ha":619,"x_min":0,"x_max":619,"o":"m 125 -334 q 29 -322 72 -334 l 29 -171 q 92 -179 56 -179 q 211 -60 182 -179 l 224 -12 l 0 755 l 187 755 l 292 329 q 317 170 308 268 l 321 170 q 327 227 321 185 l 336 293 q 429 755 339 318 l 619 755 l 403 -54 q 298 -269 363 -204 q 125 -334 233 -334 z "},"z":{"ha":496,"x_min":28,"x_max":468,"o":"m 468 146 l 468 0 l 28 0 l 28 115 l 260 610 l 43 610 l 43 755 l 458 755 l 458 628 l 233 146 l 468 146 z "},"{":{"ha":500,"x_min":17,"x_max":478,"o":"m 359 750 l 359 545 q 203 390 357 414 l 203 382 q 359 236 359 358 l 359 22 q 385 -51 359 -27 q 478 -77 410 -75 l 478 -220 q 343 -209 396 -218 q 257 -177 291 -200 q 208 -119 222 -155 q 192 -28 193 -83 l 192 187 q 148 281 192 252 q 17 310 104 310 l 17 461 q 148 489 104 461 q 192 578 192 517 l 192 800 q 255 948 193 908 q 478 991 317 989 l 478 848 q 385 823 410 846 q 359 750 359 800 z "},"|":{"ha":704,"x_min":282,"x_max":422,"o":"m 422 -319 l 282 -319 l 282 1053 l 422 1053 l 422 -319 z "},"}":{"ha":500,"x_min":22,"x_max":484,"o":"m 22 991 q 246 948 182 991 q 310 800 310 905 l 310 578 q 353 489 310 517 q 484 461 397 461 l 484 310 q 353 281 396 310 q 310 187 310 252 l 310 -28 q 245 -176 310 -134 q 22 -220 181 -220 l 22 -77 q 116 -51 91 -75 q 142 22 142 -28 l 142 234 q 182 333 142 295 q 300 382 222 370 l 300 390 q 142 545 145 413 l 142 750 q 117 823 142 800 q 22 848 92 846 l 22 991 z "},"~":{"ha":623,"x_min":50,"x_max":572,"o":"m 432 379 q 292 422 375 379 q 219 455 236 450 q 179 460 202 460 q 50 378 119 460 l 50 526 q 191 600 111 600 q 247 592 218 600 q 325 559 275 585 q 395 526 374 533 q 446 519 416 519 q 572 602 505 519 l 572 453 q 432 379 517 379 z "},"¡":{"ha":376,"x_min":75,"x_max":300,"o":"m 75 647 q 75 673 75 647 q 105 729 75 700 q 188 758 134 758 q 270 729 241 758 q 300 647 300 700 q 271 565 300 593 q 187 536 241 536 q 104 565 133 536 q 75 647 75 593 m 296 -250 l 77 -250 l 111 421 l 261 421 l 296 -250 z "},"¢":{"ha":643,"x_min":100,"x_max":546,"o":"m 415 1003 l 415 895 q 546 850 487 884 l 493 708 q 393 742 435 742 q 311 683 336 742 q 285 504 285 625 q 310 326 285 383 q 392 268 336 268 q 533 317 460 268 l 533 158 q 415 117 480 123 l 415 -14 l 302 -14 l 302 122 q 100 500 100 176 q 150 768 100 671 q 302 889 199 865 l 302 1003 l 415 1003 z "},"£":{"ha":643,"x_min":52,"x_max":612,"o":"m 158 579 l 158 728 q 221 934 158 863 q 406 1006 285 1006 q 597 957 512 1006 l 541 814 q 416 850 478 850 q 339 724 339 850 l 339 579 l 503 579 l 503 441 l 339 441 l 339 351 q 250 164 339 228 l 612 164 l 612 0 l 52 0 l 52 155 q 136 229 115 189 q 158 335 158 269 l 158 441 l 53 441 l 53 579 l 158 579 z "},"¤":{"ha":754,"x_min":61,"x_max":693,"o":"m 606 628 q 643 489 643 566 q 606 353 643 412 l 690 268 l 599 176 l 511 261 q 371 225 448 225 q 239 261 295 225 l 154 178 l 62 269 l 149 354 q 110 488 110 416 q 149 627 110 559 l 61 713 l 154 806 l 240 720 q 376 757 302 757 q 511 718 449 757 l 599 806 l 693 715 l 606 628 m 514 491 q 514 519 514 491 q 474 587 514 547 q 377 627 434 627 q 281 587 320 627 q 241 491 241 548 q 281 395 241 434 q 377 355 320 355 q 474 395 435 355 q 514 491 514 435 z "},"¥":{"ha":643,"x_min":4,"x_max":639,"o":"m 578 482 l 578 367 l 412 367 l 412 271 l 578 271 l 578 155 l 412 155 l 412 0 l 232 0 l 232 155 l 65 155 l 65 271 l 232 271 l 232 367 l 65 367 l 65 482 l 192 482 l 4 991 l 196 991 l 322 572 l 447 991 l 639 991 l 452 482 l 578 482 z "},"¦":{"ha":704,"x_min":282,"x_max":422,"o":"m 422 504 l 282 504 l 282 1053 l 422 1053 l 422 504 m 422 -319 l 282 -319 l 282 229 l 422 229 l 422 -319 z "},"§":{"ha":591,"x_min":56,"x_max":528,"o":"m 256 97 q 338 116 311 97 q 364 178 364 136 q 343 223 364 201 q 273 273 322 245 q 141 359 178 326 q 64 526 64 430 q 87 623 64 579 q 151 693 110 666 q 90 764 111 720 q 68 861 68 809 q 130 1004 68 951 q 300 1057 193 1057 q 524 1010 407 1057 l 479 885 q 420 909 442 901 q 365 925 399 918 q 297 933 332 933 q 243 915 263 933 q 224 867 224 896 q 245 816 224 839 q 315 765 267 793 l 372 732 q 492 631 456 684 q 528 510 528 578 q 443 334 528 397 q 502 271 483 304 q 521 191 521 238 q 456 33 521 90 q 273 -24 392 -24 q 56 16 136 -24 l 56 146 q 256 97 159 97 m 349 393 q 378 481 378 435 q 253 633 378 572 q 221 597 234 622 q 208 537 208 572 q 230 477 208 503 q 307 418 251 452 l 349 393 z "},"¨":{"ha":766,"x_min":158,"x_max":608,"o":"m 182 1016 q 194 1027 182 1016 q 248 1039 205 1039 q 314 1015 290 1039 q 338 951 338 991 q 314 889 338 912 q 248 865 290 865 q 182 888 205 865 q 158 952 158 911 q 182 1016 158 993 m 428 952 q 428 972 428 952 q 452 1016 428 992 q 517 1039 475 1039 q 584 1016 559 1039 q 608 952 608 992 q 584 888 608 911 q 518 865 560 865 q 452 889 476 865 q 428 952 428 912 z "},"©":{"ha":1145,"x_min":62,"x_max":1082,"o":"m 571 -14 q 502 -14 571 -14 q 313 56 432 -14 q 129 243 195 126 q 62 496 62 361 q 131 750 62 631 q 317 938 199 869 q 571 1006 436 1006 q 824 939 707 1006 q 1012 754 942 873 q 1082 497 1082 636 q 1014 240 1082 357 q 828 55 945 123 q 571 -14 711 -14 m 362 134 q 411 106 362 134 q 572 78 459 78 q 782 134 686 78 q 935 286 879 190 q 990 495 990 382 q 934 705 990 608 q 782 858 878 802 q 573 914 685 914 q 363 858 461 914 q 210 705 265 802 q 154 497 154 609 q 210 287 154 385 q 362 134 266 190 m 597 179 q 385 262 461 179 q 310 496 310 347 q 385 728 310 646 q 593 811 459 811 q 793 761 688 811 l 745 652 q 601 690 669 690 q 495 639 532 690 q 457 493 457 588 q 492 349 457 398 q 602 300 526 300 q 687 311 642 300 q 764 339 732 322 l 764 216 q 597 179 686 179 z "},"ª":{"ha":463,"x_min":39,"x_max":397,"o":"m 65 950 q 234 1003 152 1003 q 357 957 317 1003 q 397 825 397 911 l 397 522 l 318 522 l 300 593 q 171 514 254 514 q 74 551 109 514 q 39 662 39 588 q 84 772 39 736 q 228 814 129 808 l 283 817 l 283 822 q 214 903 283 903 q 103 864 168 903 l 65 950 m 155 664 q 199 611 155 611 q 261 638 238 611 q 283 714 283 666 l 283 741 l 235 736 q 175 715 195 732 q 155 664 155 698 z "},"«":{"ha":774,"x_min":50,"x_max":724,"o":"m 393 614 l 244 378 l 393 142 l 258 66 l 50 368 l 50 386 l 258 689 l 393 614 m 724 614 l 575 378 l 724 142 l 589 66 l 380 368 l 380 386 l 589 689 l 724 614 z "},"¬":{"ha":623,"x_min":72,"x_max":550,"o":"m 550 170 l 418 170 l 418 419 l 72 419 l 72 559 l 550 559 l 550 170 z "},"­":{"ha":439,"x_min":49,"x_max":390,"o":"m 390 293 l 49 293 l 49 452 l 390 452 l 390 293 z "},"®":{"ha":1145,"x_min":62,"x_max":1082,"o":"m 571 -14 q 502 -14 571 -14 q 313 56 432 -14 q 129 243 195 126 q 62 496 62 361 q 131 750 62 631 q 317 938 199 869 q 571 1006 436 1006 q 824 939 707 1006 q 1012 754 942 873 q 1082 497 1082 636 q 1014 240 1082 357 q 828 55 945 123 q 571 -14 711 -14 m 362 134 q 411 106 362 134 q 572 78 459 78 q 782 134 686 78 q 935 286 879 190 q 990 495 990 382 q 934 705 990 608 q 782 858 878 802 q 573 914 685 914 q 363 858 461 914 q 210 705 265 802 q 154 497 154 609 q 210 287 154 385 q 362 134 266 190 m 368 804 l 543 804 q 721 759 665 804 q 778 615 778 713 q 677 457 778 500 l 690 437 l 839 186 l 677 186 l 553 418 l 514 418 l 514 186 l 368 186 l 368 804 m 514 694 l 514 526 l 541 526 q 610 546 589 526 q 631 612 631 566 q 609 676 631 659 q 539 694 587 694 l 514 694 z "},"¯":{"ha":694,"x_min":-4,"x_max":699,"o":"m 699 1055 l -4 1055 l -4 1183 l 699 1183 l 699 1055 z "},"°":{"ha":564,"x_min":52,"x_max":513,"o":"m 118 612 q 52 775 52 680 q 119 938 52 869 q 281 1006 186 1006 q 445 938 376 1006 q 513 774 513 869 q 446 612 513 680 q 282 546 378 546 q 118 612 186 546 m 359 697 q 392 775 392 730 q 360 854 392 821 q 282 886 328 886 q 203 853 237 886 q 171 774 171 819 q 204 697 171 730 q 282 665 238 665 q 359 697 326 665 z "},"±":{"ha":623,"x_min":72,"x_max":550,"o":"m 378 559 l 550 559 l 550 419 l 378 419 l 378 170 l 244 170 l 244 419 l 72 419 l 72 559 l 244 559 l 244 812 l 378 812 l 378 559 m 550 0 l 72 0 l 72 140 l 550 140 l 550 0 z "},"²":{"ha":467,"x_min":33,"x_max":422,"o":"m 229 1006 q 359 961 312 1006 q 406 836 406 916 q 380 733 406 781 q 271 596 355 685 l 201 524 l 422 524 l 422 397 l 36 397 l 36 504 l 171 654 q 254 759 236 728 q 272 821 272 789 q 256 869 272 853 q 214 885 240 885 q 103 825 163 885 l 33 920 q 229 1006 119 1006 z "},"³":{"ha":467,"x_min":39,"x_max":416,"o":"m 227 1004 q 350 962 302 1004 q 399 848 399 920 q 298 713 399 747 l 298 705 q 387 653 357 692 q 416 564 416 615 q 363 433 416 480 q 206 386 309 386 q 43 424 103 386 l 43 543 q 199 494 115 494 q 290 574 290 494 q 186 650 290 650 l 119 650 l 119 751 l 176 751 q 252 770 227 751 q 277 825 277 789 q 212 895 277 895 q 157 882 183 895 q 97 842 132 870 l 39 932 q 131 988 86 971 q 227 1004 175 1004 z "},"´":{"ha":755,"x_min":211,"x_max":543,"o":"m 543 1064 l 543 1050 q 465 958 528 1022 q 338 842 401 895 l 211 842 l 211 860 q 276 963 238 895 q 328 1064 313 1031 l 543 1064 z "},"µ":{"ha":704,"x_min":69,"x_max":629,"o":"m 629 0 l 485 0 l 463 97 l 452 97 q 317 -14 409 -14 q 245 14 277 -14 q 252 -171 252 -75 l 252 -334 l 69 -334 l 69 755 l 252 755 l 252 281 q 272 172 252 205 q 335 139 292 139 q 420 197 393 139 q 447 393 447 254 l 447 755 l 629 755 l 629 0 z "},"¶":{"ha":734,"x_min":43,"x_max":643,"o":"m 643 -176 l 539 -176 l 539 925 l 429 925 l 429 -176 l 325 -176 l 325 379 q 253 367 294 367 q 94 451 145 367 q 43 709 43 535 q 98 969 43 883 q 271 1055 153 1055 l 643 1055 l 643 -176 z "},"·":{"ha":375,"x_min":75,"x_max":300,"o":"m 104 573 q 118 587 104 573 q 187 602 132 602 q 271 573 242 602 q 300 491 300 544 q 270 408 300 437 q 187 379 241 379 q 104 408 133 379 q 75 491 75 437 q 104 573 75 544 z "},"¸":{"ha":282,"x_min":-17,"x_max":269,"o":"m 269 -176 q 220 -292 269 -251 q 72 -334 171 -334 q -17 -319 23 -334 l -17 -215 q 65 -227 26 -227 q 125 -182 125 -227 q 18 -107 125 -124 l 72 0 l 189 0 l 164 -52 q 241 -96 212 -64 q 269 -176 269 -127 z "},"¹":{"ha":467,"x_min":45,"x_max":339,"o":"m 339 397 l 205 397 l 205 710 l 208 786 l 211 851 q 196 835 205 843 l 107 758 l 45 838 l 229 991 l 339 991 l 339 397 z "},"º":{"ha":465,"x_min":41,"x_max":424,"o":"m 92 581 q 41 761 41 648 q 92 939 41 875 q 232 1003 143 1003 q 372 937 320 1003 q 424 757 424 871 q 372 578 424 643 q 232 514 320 514 q 92 581 144 514 m 290 865 q 281 882 290 865 q 233 899 272 899 q 176 865 195 899 q 158 760 158 831 q 233 618 158 618 q 290 652 272 618 q 307 759 307 687 q 290 865 307 831 z "},"»":{"ha":774,"x_min":50,"x_max":724,"o":"m 393 386 l 393 368 l 184 66 l 50 142 l 199 378 l 50 614 l 184 689 l 393 386 m 724 386 l 724 368 l 515 66 l 380 142 l 529 378 l 380 614 l 515 689 l 724 386 z "},"¼":{"ha":1083,"x_min":40,"x_max":1004,"o":"m 334 397 l 201 397 l 201 710 l 203 786 l 206 851 q 191 835 201 843 l 102 758 l 40 838 l 224 991 l 334 991 l 334 397 m 325 0 l 187 0 l 690 991 l 829 991 l 325 0 m 929 217 l 1004 217 l 1004 109 l 929 109 l 929 1 l 796 1 l 796 109 l 562 109 l 562 208 l 798 599 l 929 599 l 929 217 m 796 217 l 796 332 l 799 459 q 775 402 792 441 q 751 353 758 364 l 669 217 l 796 217 z "},"½":{"ha":1083,"x_min":40,"x_max":1029,"o":"m 334 397 l 201 397 l 201 710 l 203 786 l 206 851 q 191 835 201 843 l 102 758 l 40 838 l 224 991 l 334 991 l 334 397 m 325 0 l 187 0 l 690 991 l 829 991 l 325 0 m 836 609 q 966 564 919 609 q 1013 439 1013 519 q 987 337 1013 385 q 878 199 962 288 l 808 127 l 1029 127 l 1029 1 l 643 1 l 643 107 l 778 258 q 861 362 843 331 q 879 425 879 393 q 863 473 879 457 q 821 488 848 488 q 710 429 770 488 l 640 523 q 836 609 726 609 z "},"¾":{"ha":1083,"x_min":41,"x_max":1008,"o":"m 229 1004 q 353 962 305 1004 q 401 848 401 920 q 301 713 401 747 l 301 705 q 389 653 359 692 q 419 564 419 615 q 366 433 419 480 q 209 386 312 386 q 45 424 106 386 l 45 543 q 201 494 118 494 q 293 574 293 494 q 189 650 293 650 l 122 650 l 122 751 l 179 751 q 254 770 229 751 q 279 825 279 789 q 215 895 279 895 q 160 882 186 895 q 100 842 134 870 l 41 932 q 133 988 89 971 q 229 1004 178 1004 m 349 0 l 211 0 l 714 991 l 852 991 l 349 0 m 933 217 l 1008 217 l 1008 109 l 933 109 l 933 1 l 800 1 l 800 109 l 566 109 l 566 208 l 802 599 l 933 599 l 933 217 m 800 217 l 800 332 l 803 459 q 779 402 796 441 q 755 353 762 364 l 673 217 l 800 217 z "},"¿":{"ha":530,"x_min":36,"x_max":514,"o":"m 189 647 q 189 673 189 647 q 219 729 189 700 q 301 758 248 758 q 384 729 355 758 q 414 647 414 700 q 385 565 414 593 q 301 536 355 536 q 218 565 247 536 q 189 647 189 593 m 382 421 l 382 372 q 362 260 382 309 q 290 155 342 212 q 224 66 238 98 q 211 -10 211 35 q 233 -83 211 -56 q 296 -110 254 -110 q 449 -57 370 -110 l 514 -193 q 278 -265 408 -265 q 100 -204 164 -265 q 36 -31 36 -142 q 75 134 36 67 q 145 224 96 170 q 209 306 195 277 q 222 379 222 335 l 222 421 l 382 421 z "},"À":{"ha":742,"x_min":0,"x_max":742,"o":"m 131 1293 l 347 1293 q 401 1187 363 1256 q 463 1089 438 1122 l 463 1071 l 336 1071 q 215 1182 282 1114 q 131 1279 147 1249 l 131 1293 m 742 0 l 557 0 l 500 250 l 241 250 l 184 0 l 0 0 l 245 996 l 496 996 l 742 0 m 465 414 l 412 644 q 392 744 411 650 q 371 863 374 838 q 349 737 361 800 q 278 414 337 674 l 465 414 z "},"Á":{"ha":742,"x_min":0,"x_max":742,"o":"m 607 1293 l 607 1279 q 528 1187 591 1251 q 401 1071 465 1124 l 275 1071 l 275 1089 q 339 1192 302 1124 q 391 1293 377 1260 l 607 1293 m 742 0 l 557 0 l 500 250 l 241 250 l 184 0 l 0 0 l 245 996 l 496 996 l 742 0 m 465 414 l 412 644 q 392 744 411 650 q 371 863 374 838 q 349 737 361 800 q 278 414 337 674 l 465 414 z "},"Â":{"ha":742,"x_min":0,"x_max":742,"o":"m 612 1071 l 498 1071 q 370 1192 433 1120 q 244 1071 311 1124 l 130 1071 l 130 1089 q 277 1293 250 1240 l 465 1293 q 612 1089 495 1238 l 612 1071 m 742 0 l 557 0 l 500 250 l 241 250 l 184 0 l 0 0 l 245 996 l 496 996 l 742 0 m 465 414 l 412 644 q 392 744 411 650 q 371 863 374 838 q 349 737 361 800 q 278 414 337 674 l 465 414 z "},"Ã":{"ha":742,"x_min":0,"x_max":742,"o":"m 465 1071 q 411 1082 437 1071 q 368 1107 385 1093 q 291 1143 323 1143 q 257 1127 269 1143 q 238 1069 244 1110 l 142 1069 q 188 1222 150 1171 q 291 1274 227 1274 q 343 1262 317 1274 q 387 1238 370 1251 q 466 1202 434 1202 q 498 1218 488 1202 q 517 1275 509 1235 l 613 1275 q 567 1122 606 1174 q 465 1071 528 1071 m 742 0 l 557 0 l 500 250 l 241 250 l 184 0 l 0 0 l 245 996 l 496 996 l 742 0 m 465 414 l 412 644 q 392 744 411 650 q 371 863 374 838 q 349 737 361 800 q 278 414 337 674 l 465 414 z "},"Ä":{"ha":742,"x_min":0,"x_max":742,"o":"m 170 1245 q 182 1257 170 1245 q 236 1268 194 1268 q 302 1244 278 1268 q 326 1181 326 1220 q 302 1118 326 1141 q 236 1095 278 1095 q 170 1117 194 1095 q 146 1181 146 1140 q 170 1245 146 1222 m 416 1181 q 416 1201 416 1181 q 440 1245 416 1221 q 506 1268 464 1268 q 572 1245 548 1268 q 597 1181 597 1221 q 573 1118 597 1141 q 507 1095 549 1095 q 440 1118 465 1095 q 416 1181 416 1141 m 742 0 l 557 0 l 500 250 l 241 250 l 184 0 l 0 0 l 245 996 l 496 996 l 742 0 m 465 414 l 412 644 q 392 744 411 650 q 371 863 374 838 q 349 737 361 800 q 278 414 337 674 l 465 414 z "},"Å":{"ha":742,"x_min":0,"x_max":742,"o":"m 237 962 q 205 1069 205 1001 q 250 1180 205 1138 q 370 1222 296 1222 q 492 1178 444 1222 q 540 1068 540 1135 q 505 961 540 1002 l 742 0 l 557 0 l 500 250 l 241 250 l 184 0 l 0 0 l 237 962 m 419 1113 q 409 1123 419 1113 q 370 1132 399 1132 q 322 1113 341 1132 q 302 1063 302 1095 q 320 1014 302 1031 q 369 996 337 996 q 419 1014 400 996 q 438 1064 438 1033 q 419 1113 438 1095 m 465 414 l 412 644 q 392 744 411 650 q 371 863 374 838 q 349 737 361 800 q 278 414 337 674 l 465 414 z "},"Æ":{"ha":966,"x_min":0,"x_max":908,"o":"m 908 832 l 648 832 l 648 596 l 889 596 l 889 436 l 648 436 l 648 161 l 908 161 l 908 0 l 464 0 l 464 250 l 261 250 l 184 0 l 0 0 l 321 991 l 908 991 l 908 832 m 464 414 l 464 832 l 437 832 l 313 414 l 464 414 z "},"Ç":{"ha":643,"x_min":57,"x_max":618,"o":"m 416 844 q 291 752 337 844 q 245 493 245 660 q 425 149 245 149 q 590 199 503 149 l 590 35 q 420 -14 524 -9 l 401 -52 q 478 -96 450 -64 q 507 -176 507 -127 q 457 -292 507 -251 q 309 -334 408 -334 q 220 -319 260 -334 l 220 -215 q 302 -227 263 -227 q 362 -182 362 -227 q 256 -107 362 -124 l 309 -1 q 146 119 210 27 q 57 494 57 252 q 149 871 57 736 q 407 1006 241 1006 q 618 939 515 1006 l 557 789 q 486 830 518 815 q 416 844 453 844 z "},"È":{"ha":591,"x_min":60,"x_max":534,"o":"m 60 1293 l 276 1293 q 330 1187 293 1256 q 393 1089 368 1122 l 393 1071 l 266 1071 q 144 1182 212 1114 q 60 1279 77 1249 l 60 1293 m 534 832 l 272 832 l 272 596 l 515 596 l 515 436 l 272 436 l 272 161 l 534 161 l 534 0 l 87 0 l 87 991 l 534 991 l 534 832 z "},"É":{"ha":591,"x_min":87,"x_max":560,"o":"m 560 1293 l 560 1279 q 481 1187 545 1251 q 355 1071 418 1124 l 228 1071 l 228 1089 q 293 1192 255 1124 q 345 1293 330 1260 l 560 1293 m 534 832 l 272 832 l 272 596 l 515 596 l 515 436 l 272 436 l 272 161 l 534 161 l 534 0 l 87 0 l 87 991 l 534 991 l 534 832 z "},"Ê":{"ha":591,"x_min":70,"x_max":552,"o":"m 552 1071 l 438 1071 q 310 1192 372 1120 q 184 1071 251 1124 l 70 1071 l 70 1089 q 217 1293 189 1240 l 405 1293 q 552 1089 435 1238 l 552 1071 m 534 832 l 272 832 l 272 596 l 515 596 l 515 436 l 272 436 l 272 161 l 534 161 l 534 0 l 87 0 l 87 991 l 534 991 l 534 832 z "},"Ë":{"ha":591,"x_min":87,"x_max":538,"o":"m 112 1245 q 124 1257 112 1245 q 178 1268 136 1268 q 244 1244 220 1268 q 268 1181 268 1220 q 244 1118 268 1141 q 178 1095 220 1095 q 112 1117 136 1095 q 88 1181 88 1140 q 112 1245 88 1222 m 358 1181 q 358 1201 358 1181 q 382 1245 358 1221 q 448 1268 406 1268 q 514 1245 490 1268 q 538 1181 538 1221 q 514 1118 538 1141 q 448 1095 490 1095 q 382 1118 406 1095 q 358 1181 358 1141 m 534 832 l 272 832 l 272 596 l 515 596 l 515 436 l 272 436 l 272 161 l 534 161 l 534 0 l 87 0 l 87 991 l 534 991 l 534 832 z "},"Ì":{"ha":416,"x_min":-34,"x_max":298,"o":"m -34 1293 l 182 1293 q 236 1187 199 1256 q 298 1089 273 1122 l 298 1071 l 172 1071 q 50 1182 117 1114 q -34 1279 -18 1249 l -34 1293 m 294 0 l 121 0 l 121 991 l 294 991 l 294 0 z "},"Í":{"ha":416,"x_min":113,"x_max":446,"o":"m 446 1293 l 446 1279 q 367 1187 430 1251 q 240 1071 304 1124 l 113 1071 l 113 1089 q 178 1192 140 1124 q 230 1293 216 1260 l 446 1293 m 294 0 l 121 0 l 121 991 l 294 991 l 294 0 z "},"Î":{"ha":416,"x_min":-33,"x_max":450,"o":"m 450 1071 l 336 1071 q 208 1192 270 1120 q 81 1071 149 1124 l -33 1071 l -33 1089 q 115 1293 87 1240 l 302 1293 q 450 1089 332 1238 l 450 1071 m 294 0 l 121 0 l 121 991 l 294 991 l 294 0 z "},"Ï":{"ha":416,"x_min":-16,"x_max":434,"o":"m 7 1245 q 19 1257 7 1245 q 73 1268 31 1268 q 139 1244 115 1268 q 163 1181 163 1220 q 139 1118 163 1141 q 73 1095 115 1095 q 7 1117 31 1095 q -16 1181 -16 1140 q 7 1245 -16 1222 m 254 1181 q 254 1201 254 1181 q 277 1245 254 1221 q 343 1268 301 1268 q 410 1245 385 1268 q 434 1181 434 1221 q 410 1118 434 1141 q 344 1095 386 1095 q 278 1118 302 1095 q 254 1181 254 1141 m 294 0 l 121 0 l 121 991 l 294 991 l 294 0 z "},"Ð":{"ha":775,"x_min":0,"x_max":718,"o":"m 87 991 l 353 991 q 622 864 525 991 q 718 498 718 736 q 618 130 718 259 q 330 0 518 0 l 87 0 l 87 410 l 0 410 l 0 571 l 87 571 l 87 991 m 272 832 l 272 571 l 396 571 l 396 410 l 272 410 l 272 161 l 332 161 q 480 245 432 161 q 529 500 529 330 q 346 832 529 832 l 272 832 z "},"Ñ":{"ha":869,"x_min":87,"x_max":782,"o":"m 528 1071 q 474 1082 500 1071 q 431 1107 448 1093 q 354 1143 386 1143 q 320 1127 332 1143 q 301 1069 307 1110 l 205 1069 q 251 1222 213 1171 q 354 1274 290 1274 q 407 1262 380 1274 q 450 1238 433 1251 q 529 1202 497 1202 q 562 1218 551 1202 q 581 1275 572 1235 l 676 1275 q 630 1122 669 1174 q 528 1071 591 1071 m 782 0 l 557 0 l 250 718 l 241 718 q 258 542 258 637 l 258 0 l 87 0 l 87 991 l 314 991 l 618 281 l 625 281 q 612 450 612 350 l 612 991 l 782 991 l 782 0 z "},"Ò":{"ha":827,"x_min":57,"x_max":770,"o":"m 165 1293 l 381 1293 q 435 1187 398 1256 q 498 1089 473 1122 l 498 1071 l 371 1071 q 249 1182 317 1114 q 165 1279 182 1249 l 165 1293 m 149 118 q 57 497 57 250 q 150 876 57 745 q 414 1007 242 1007 q 678 875 587 1007 q 770 497 770 743 q 677 118 770 250 q 413 -14 585 -14 q 149 118 242 -14 m 415 844 q 289 756 332 844 q 245 498 245 668 q 288 239 245 328 q 414 150 331 150 q 581 497 581 150 q 415 844 581 844 z "},"Ó":{"ha":827,"x_min":57,"x_max":770,"o":"m 656 1293 l 656 1279 q 577 1187 640 1251 q 450 1071 514 1124 l 323 1071 l 323 1089 q 388 1192 351 1124 q 440 1293 426 1260 l 656 1293 m 149 118 q 57 497 57 250 q 150 876 57 745 q 414 1007 242 1007 q 678 875 587 1007 q 770 497 770 743 q 677 118 770 250 q 413 -14 585 -14 q 149 118 242 -14 m 415 844 q 289 756 332 844 q 245 498 245 668 q 288 239 245 328 q 414 150 331 150 q 581 497 581 150 q 415 844 581 844 z "},"Ô":{"ha":827,"x_min":57,"x_max":770,"o":"m 653 1071 l 539 1071 q 411 1192 473 1120 q 285 1071 352 1124 l 171 1071 l 171 1089 q 318 1293 290 1240 l 506 1293 q 653 1089 536 1238 l 653 1071 m 149 118 q 57 497 57 250 q 150 876 57 745 q 414 1007 242 1007 q 678 875 587 1007 q 770 497 770 743 q 677 118 770 250 q 413 -14 585 -14 q 149 118 242 -14 m 415 844 q 289 756 332 844 q 245 498 245 668 q 288 239 245 328 q 414 150 331 150 q 581 497 581 150 q 415 844 581 844 z "},"Õ":{"ha":827,"x_min":57,"x_max":770,"o":"m 507 1071 q 453 1082 479 1071 q 410 1107 427 1093 q 333 1143 365 1143 q 299 1127 311 1143 q 280 1069 286 1110 l 184 1069 q 230 1222 192 1171 q 333 1274 269 1274 q 386 1262 359 1274 q 429 1238 412 1251 q 508 1202 476 1202 q 541 1218 530 1202 q 559 1275 551 1235 l 655 1275 q 609 1122 648 1174 q 507 1071 570 1071 m 149 118 q 57 497 57 250 q 150 876 57 745 q 414 1007 242 1007 q 678 875 587 1007 q 770 497 770 743 q 677 118 770 250 q 413 -14 585 -14 q 149 118 242 -14 m 415 844 q 289 756 332 844 q 245 498 245 668 q 288 239 245 328 q 414 150 331 150 q 581 497 581 150 q 415 844 581 844 z "},"Ö":{"ha":827,"x_min":57,"x_max":770,"o":"m 211 1245 q 223 1257 211 1245 q 277 1268 235 1268 q 343 1244 319 1268 q 367 1181 367 1220 q 343 1118 367 1141 q 277 1095 319 1095 q 211 1117 235 1095 q 187 1181 187 1140 q 211 1245 187 1222 m 457 1181 q 457 1201 457 1181 q 481 1245 457 1221 q 547 1268 505 1268 q 613 1245 589 1268 q 637 1181 637 1221 q 613 1118 637 1141 q 547 1095 589 1095 q 481 1118 505 1095 q 457 1181 457 1141 m 149 118 q 57 497 57 250 q 150 876 57 745 q 414 1007 242 1007 q 678 875 587 1007 q 770 497 770 743 q 677 118 770 250 q 413 -14 585 -14 q 149 118 242 -14 m 415 844 q 289 756 332 844 q 245 498 245 668 q 288 239 245 328 q 414 150 331 150 q 581 497 581 150 q 415 844 581 844 z "},"×":{"ha":623,"x_min":62,"x_max":558,"o":"m 558 714 l 392 490 l 558 264 l 456 187 l 310 383 l 165 187 l 62 264 l 229 490 l 62 714 l 165 790 l 310 599 l 456 790 l 558 714 z "},"Ø":{"ha":827,"x_min":57,"x_max":770,"o":"m 679 872 q 770 496 770 741 q 677 118 770 250 q 414 -14 585 -14 q 250 25 323 -14 l 203 -69 l 90 -17 l 155 110 q 57 493 57 241 q 150 876 57 745 q 415 1007 242 1007 q 586 961 507 1007 l 635 1057 l 747 1006 l 679 872 m 415 844 q 289 756 332 844 q 245 497 245 668 q 260 317 245 390 l 511 811 q 415 844 476 844 m 414 150 q 581 497 581 150 q 572 657 581 600 l 326 176 q 414 150 359 150 z "},"Ù":{"ha":781,"x_min":83,"x_max":697,"o":"m 142 1293 l 358 1293 q 412 1187 375 1256 q 475 1089 450 1122 l 475 1071 l 348 1071 q 226 1182 294 1114 q 142 1279 159 1249 l 142 1293 m 697 991 l 697 350 q 617 80 697 173 q 387 -14 537 -14 q 160 79 237 -14 q 83 353 83 172 l 83 991 l 267 991 l 267 339 q 392 150 267 150 q 482 198 450 150 q 514 335 514 246 l 514 991 l 697 991 z "},"Ú":{"ha":781,"x_min":83,"x_max":697,"o":"m 633 1293 l 633 1279 q 555 1187 618 1251 q 428 1071 492 1124 l 301 1071 l 301 1089 q 366 1192 328 1124 q 418 1293 404 1260 l 633 1293 m 697 991 l 697 350 q 617 80 697 173 q 387 -14 537 -14 q 160 79 237 -14 q 83 353 83 172 l 83 991 l 267 991 l 267 339 q 392 150 267 150 q 482 198 450 150 q 514 335 514 246 l 514 991 l 697 991 z "},"Û":{"ha":781,"x_min":83,"x_max":697,"o":"m 631 1071 l 517 1071 q 389 1192 451 1120 q 262 1071 330 1124 l 149 1071 l 149 1089 q 296 1293 268 1240 l 484 1293 q 631 1089 513 1238 l 631 1071 m 697 991 l 697 350 q 617 80 697 173 q 387 -14 537 -14 q 160 79 237 -14 q 83 353 83 172 l 83 991 l 267 991 l 267 339 q 392 150 267 150 q 482 198 450 150 q 514 335 514 246 l 514 991 l 697 991 z "},"Ü":{"ha":781,"x_min":83,"x_max":697,"o":"m 189 1245 q 200 1257 189 1245 q 254 1268 212 1268 q 320 1244 296 1268 q 345 1181 345 1220 q 320 1118 345 1141 q 254 1095 296 1095 q 189 1117 212 1095 q 165 1181 165 1140 q 189 1245 165 1222 m 435 1181 q 435 1201 435 1181 q 458 1245 435 1221 q 524 1268 482 1268 q 591 1245 566 1268 q 615 1181 615 1221 q 591 1118 615 1141 q 525 1095 567 1095 q 459 1118 483 1095 q 435 1181 435 1141 m 697 991 l 697 350 q 617 80 697 173 q 387 -14 537 -14 q 160 79 237 -14 q 83 353 83 172 l 83 991 l 267 991 l 267 339 q 392 150 267 150 q 482 198 450 150 q 514 335 514 246 l 514 991 l 697 991 z "},"Ý":{"ha":652,"x_min":0,"x_max":652,"o":"m 567 1293 l 567 1279 q 488 1187 551 1251 q 361 1071 425 1124 l 235 1071 l 235 1089 q 299 1192 262 1124 q 351 1293 337 1260 l 567 1293 m 416 0 l 235 0 l 235 390 l 0 991 l 195 991 l 326 600 l 458 991 l 652 991 l 416 397 l 416 0 z "},"Þ":{"ha":665,"x_min":87,"x_max":628,"o":"m 272 833 l 338 833 q 628 528 628 833 q 548 284 628 369 q 318 200 469 200 l 272 200 l 272 0 l 87 0 l 87 991 l 272 991 l 272 833 m 272 675 l 272 359 l 307 359 q 409 398 376 359 q 441 521 441 437 q 318 675 441 675 l 272 675 z "},"ß":{"ha":751,"x_min":77,"x_max":722,"o":"m 77 0 l 77 781 q 153 990 77 917 q 366 1063 229 1063 q 578 1005 503 1063 q 653 844 653 947 q 581 666 653 742 l 547 630 q 509 567 509 590 q 526 520 509 543 q 611 444 545 497 q 700 343 677 391 q 722 229 722 296 q 654 51 722 115 q 463 -14 586 -14 q 306 22 368 -14 l 306 175 q 447 127 376 127 q 538 215 538 127 q 519 280 538 252 q 441 354 500 308 q 355 441 381 399 q 329 534 329 485 q 346 618 329 584 q 400 690 362 653 q 454 755 437 727 q 469 814 469 783 q 443 887 469 861 q 367 913 416 913 q 257 775 257 913 l 257 0 l 77 0 z "},"à":{"ha":648,"x_min":37,"x_max":579,"o":"m 99 1064 l 315 1064 q 369 958 332 1027 q 431 860 406 893 l 431 842 l 304 842 q 183 952 250 885 q 99 1050 115 1020 l 99 1064 m 89 700 q 327 771 201 771 q 516 703 453 771 q 579 507 579 634 l 579 0 l 447 0 l 411 103 l 407 103 q 325 12 368 37 q 216 -14 282 -14 q 85 48 133 -14 q 37 225 37 111 q 102 399 37 340 q 298 464 167 458 l 399 468 l 399 522 q 307 628 399 628 q 151 575 240 628 l 89 700 m 224 221 q 290 127 224 127 q 369 172 340 127 q 399 290 399 216 l 399 354 l 343 351 q 253 316 281 348 q 224 221 224 284 z "},"á":{"ha":648,"x_min":37,"x_max":579,"o":"m 578 1064 l 578 1050 q 499 958 562 1022 q 372 842 436 895 l 245 842 l 245 860 q 310 963 273 895 q 362 1064 348 1031 l 578 1064 m 89 700 q 327 771 201 771 q 516 703 453 771 q 579 507 579 634 l 579 0 l 447 0 l 411 103 l 407 103 q 325 12 368 37 q 216 -14 282 -14 q 85 48 133 -14 q 37 225 37 111 q 102 399 37 340 q 298 464 167 458 l 399 468 l 399 522 q 307 628 399 628 q 151 575 240 628 l 89 700 m 224 221 q 290 127 224 127 q 369 172 340 127 q 399 290 399 216 l 399 354 l 343 351 q 253 316 281 348 q 224 221 224 284 z "},"â":{"ha":648,"x_min":37,"x_max":579,"o":"m 577 841 l 463 841 q 335 962 397 890 q 209 841 276 895 l 95 841 l 95 859 q 242 1063 214 1010 l 430 1063 q 577 859 460 1008 l 577 841 m 89 700 q 327 771 201 771 q 516 703 453 771 q 579 507 579 634 l 579 0 l 447 0 l 411 103 l 407 103 q 325 12 368 37 q 216 -14 282 -14 q 85 48 133 -14 q 37 225 37 111 q 102 399 37 340 q 298 464 167 458 l 399 468 l 399 522 q 307 628 399 628 q 151 575 240 628 l 89 700 m 224 221 q 290 127 224 127 q 369 172 340 127 q 399 290 399 216 l 399 354 l 343 351 q 253 316 281 348 q 224 221 224 284 z "},"ã":{"ha":648,"x_min":37,"x_max":580,"o":"m 431 842 q 378 853 404 842 q 335 878 352 864 q 258 914 290 914 q 223 898 236 914 q 205 840 211 881 l 109 840 q 155 993 117 942 q 258 1044 193 1044 q 310 1033 284 1044 q 354 1008 336 1022 q 433 972 401 972 q 465 989 454 972 q 484 1046 476 1006 l 580 1046 q 533 893 572 945 q 431 842 494 842 m 89 700 q 327 771 201 771 q 516 703 453 771 q 579 507 579 634 l 579 0 l 447 0 l 411 103 l 407 103 q 325 12 368 37 q 216 -14 282 -14 q 85 48 133 -14 q 37 225 37 111 q 102 399 37 340 q 298 464 167 458 l 399 468 l 399 522 q 307 628 399 628 q 151 575 240 628 l 89 700 m 224 221 q 290 127 224 127 q 369 172 340 127 q 399 290 399 216 l 399 354 l 343 351 q 253 316 281 348 q 224 221 224 284 z "},"ä":{"ha":648,"x_min":37,"x_max":579,"o":"m 135 1016 q 147 1027 135 1016 q 201 1039 159 1039 q 267 1015 243 1039 q 291 951 291 991 q 267 889 291 912 q 201 865 243 865 q 135 888 159 865 q 111 952 111 911 q 135 1016 111 993 m 381 952 q 381 972 381 952 q 405 1016 381 992 q 471 1039 429 1039 q 537 1016 513 1039 q 562 952 562 992 q 537 888 562 911 q 471 865 513 865 q 405 889 429 865 q 381 952 381 912 m 89 700 q 327 771 201 771 q 516 703 453 771 q 579 507 579 634 l 579 0 l 447 0 l 411 103 l 407 103 q 325 12 368 37 q 216 -14 282 -14 q 85 48 133 -14 q 37 225 37 111 q 102 399 37 340 q 298 464 167 458 l 399 468 l 399 522 q 307 628 399 628 q 151 575 240 628 l 89 700 m 224 221 q 290 127 224 127 q 369 172 340 127 q 399 290 399 216 l 399 354 l 343 351 q 253 316 281 348 q 224 221 224 284 z "},"å":{"ha":648,"x_min":37,"x_max":579,"o":"m 214 882 q 169 999 169 925 q 215 1115 169 1073 q 334 1157 260 1157 q 456 1113 408 1157 q 504 998 504 1069 q 457 884 504 927 q 335 840 410 840 q 214 882 260 840 m 383 1048 q 373 1057 383 1048 q 334 1067 363 1067 q 286 1048 305 1067 q 267 998 267 1029 q 284 948 267 966 q 333 930 301 930 q 383 949 364 930 q 402 999 402 968 q 383 1048 402 1029 m 89 700 q 327 771 201 771 q 516 703 453 771 q 579 507 579 634 l 579 0 l 447 0 l 411 103 l 407 103 q 325 12 368 37 q 216 -14 282 -14 q 85 48 133 -14 q 37 225 37 111 q 102 399 37 340 q 298 464 167 458 l 399 468 l 399 522 q 307 628 399 628 q 151 575 240 628 l 89 700 m 224 221 q 290 127 224 127 q 369 172 340 127 q 399 290 399 216 l 399 354 l 343 351 q 253 316 281 348 q 224 221 224 284 z "},"æ":{"ha":981,"x_min":37,"x_max":937,"o":"m 334 771 q 509 708 446 771 q 672 770 575 770 q 867 679 796 770 q 937 428 937 588 l 937 332 l 575 332 q 616 182 577 232 q 725 132 654 132 q 905 187 817 132 l 905 39 q 697 -14 819 -14 q 464 109 540 -14 q 374 16 425 45 q 252 -14 323 -14 q 92 46 147 -14 q 37 223 37 106 q 102 399 37 340 q 298 464 167 458 l 399 468 l 399 521 q 307 628 399 628 q 151 575 240 628 l 89 700 q 334 771 201 771 m 672 631 q 579 463 587 631 l 762 463 q 737 588 761 545 q 672 631 713 631 m 224 221 q 290 127 224 127 q 369 172 340 127 q 399 290 399 216 l 399 354 l 343 351 q 253 316 281 348 q 224 221 224 284 z "},"ç":{"ha":515,"x_min":50,"x_max":494,"o":"m 343 615 q 260 556 286 615 q 235 376 235 497 q 260 199 235 256 q 342 142 286 142 q 484 189 410 142 l 484 31 q 350 -13 423 -7 l 331 -52 q 408 -96 379 -64 q 436 -176 436 -127 q 387 -292 436 -251 q 239 -334 338 -334 q 150 -319 190 -334 l 150 -215 q 232 -227 193 -227 q 292 -182 292 -227 q 185 -107 292 -124 l 238 -1 q 98 123 146 28 q 50 374 50 218 q 117 672 50 574 q 323 770 184 770 q 494 722 418 770 l 443 582 q 343 615 387 615 z "},"è":{"ha":639,"x_min":50,"x_max":596,"o":"m 98 1064 l 313 1064 q 368 958 330 1027 q 430 860 405 893 l 430 842 l 303 842 q 181 952 249 885 q 98 1050 114 1020 l 98 1064 m 355 -14 q 132 87 214 -14 q 50 374 50 187 q 124 665 50 560 q 326 770 199 770 q 525 680 454 770 q 596 428 596 590 l 596 332 l 233 332 q 274 182 235 232 q 383 132 313 132 q 564 187 471 132 l 564 39 q 355 -14 477 -14 m 419 463 q 394 588 418 545 q 330 631 370 631 q 264 588 289 631 q 236 463 240 546 l 419 463 z "},"é":{"ha":639,"x_min":50,"x_max":596,"o":"m 568 1064 l 568 1050 q 490 958 553 1022 q 363 842 427 895 l 236 842 l 236 860 q 301 963 263 895 q 353 1064 338 1031 l 568 1064 m 355 -14 q 132 87 214 -14 q 50 374 50 187 q 124 665 50 560 q 326 770 199 770 q 525 680 454 770 q 596 428 596 590 l 596 332 l 233 332 q 274 182 235 232 q 383 132 313 132 q 564 187 471 132 l 564 39 q 355 -14 477 -14 m 419 463 q 394 588 418 545 q 330 631 370 631 q 264 588 289 631 q 236 463 240 546 l 419 463 z "},"ê":{"ha":639,"x_min":50,"x_max":596,"o":"m 572 842 l 458 842 q 330 962 392 891 q 203 842 271 895 l 90 842 l 90 860 q 237 1064 209 1011 l 425 1064 q 572 860 454 1008 l 572 842 m 355 -14 q 132 87 214 -14 q 50 374 50 187 q 124 665 50 560 q 326 770 199 770 q 525 680 454 770 q 596 428 596 590 l 596 332 l 233 332 q 274 182 235 232 q 383 132 313 132 q 564 187 471 132 l 564 39 q 355 -14 477 -14 m 419 463 q 394 588 418 545 q 330 631 370 631 q 264 588 289 631 q 236 463 240 546 l 419 463 z "},"ë":{"ha":639,"x_min":50,"x_max":596,"o":"m 130 1016 q 141 1027 130 1016 q 195 1039 153 1039 q 261 1015 237 1039 q 286 951 286 991 q 261 889 286 912 q 195 865 237 865 q 130 888 153 865 q 106 952 106 911 q 130 1016 106 993 m 376 952 q 376 972 376 952 q 399 1016 376 992 q 465 1039 423 1039 q 532 1016 507 1039 q 556 952 556 992 q 532 888 556 911 q 466 865 508 865 q 400 889 424 865 q 376 952 376 912 m 355 -14 q 132 87 214 -14 q 50 374 50 187 q 124 665 50 560 q 326 770 199 770 q 525 680 454 770 q 596 428 596 590 l 596 332 l 233 332 q 274 182 235 232 q 383 132 313 132 q 564 187 471 132 l 564 39 q 355 -14 477 -14 m 419 463 q 394 588 418 545 q 330 631 370 631 q 264 588 289 631 q 236 463 240 546 l 419 463 z "},"ì":{"ha":336,"x_min":-75,"x_max":258,"o":"m -75 1064 l 141 1064 q 195 958 158 1027 q 258 860 233 893 l 258 842 l 131 842 q 9 952 77 885 q -75 1050 -58 1020 l -75 1064 m 258 0 l 78 0 l 78 755 l 258 755 l 258 0 z "},"í":{"ha":336,"x_min":77,"x_max":409,"o":"m 409 1064 l 409 1050 q 330 958 393 1022 q 203 842 267 895 l 77 842 l 77 860 q 141 963 104 895 q 193 1064 179 1031 l 409 1064 m 258 0 l 78 0 l 78 755 l 258 755 l 258 0 z "},"î":{"ha":336,"x_min":-75,"x_max":408,"o":"m 408 842 l 294 842 q 165 962 228 891 q 39 842 106 895 l -75 842 l -75 860 q 73 1064 45 1011 l 260 1064 q 408 860 290 1008 l 408 842 m 258 0 l 78 0 l 78 755 l 258 755 l 258 0 z "},"ï":{"ha":336,"x_min":-58,"x_max":393,"o":"m -34 1016 q -22 1027 -34 1016 q 32 1039 -10 1039 q 98 1015 74 1039 q 122 951 122 991 q 98 889 122 912 q 32 865 74 865 q -34 888 -10 865 q -58 952 -58 911 q -34 1016 -58 993 m 212 952 q 212 972 212 952 q 236 1016 212 992 q 302 1039 260 1039 q 368 1016 344 1039 q 393 952 393 992 q 369 888 393 911 q 302 865 345 865 q 236 889 260 865 q 212 952 212 912 m 258 0 l 78 0 l 78 755 l 258 755 l 258 0 z "},"ð":{"ha":686,"x_min":50,"x_max":636,"o":"m 636 386 q 558 93 636 199 q 343 -14 481 -14 q 128 78 206 -14 q 50 331 50 170 q 118 582 50 491 q 311 672 186 672 q 450 593 393 672 l 458 595 q 335 810 427 714 l 186 711 l 121 810 l 252 893 q 147 958 217 920 l 211 1065 q 370 968 312 1013 l 510 1063 l 574 965 l 458 890 q 636 386 636 705 m 346 529 q 261 480 288 529 q 235 334 235 431 q 263 189 235 237 q 346 140 291 140 q 426 194 401 140 q 452 359 452 248 q 423 484 452 438 q 346 529 395 529 z "},"ñ":{"ha":704,"x_min":77,"x_max":635,"o":"m 446 842 q 393 853 419 842 q 350 878 367 864 q 273 914 304 914 q 238 898 251 914 q 220 840 226 881 l 124 840 q 170 993 132 942 q 273 1044 208 1044 q 325 1033 299 1044 q 369 1008 351 1022 q 448 972 416 972 q 480 989 469 972 q 499 1046 491 1006 l 595 1046 q 548 893 587 945 q 446 842 509 842 m 429 770 q 635 493 635 770 l 635 0 l 453 0 l 453 450 q 433 575 453 534 q 370 616 413 616 q 284 559 312 616 q 257 363 257 501 l 257 0 l 77 0 l 77 755 l 220 755 l 241 659 l 253 659 q 323 741 277 711 q 429 770 369 770 z "},"ò":{"ha":686,"x_min":50,"x_max":636,"o":"m 106 1064 l 321 1064 q 376 958 338 1027 q 438 860 413 893 l 438 842 l 311 842 q 190 952 257 885 q 106 1050 122 1020 l 106 1064 m 50 379 q 128 667 50 564 q 342 770 206 770 q 557 664 479 770 q 636 376 636 559 q 557 90 636 194 q 342 -14 479 -14 q 337 -14 339 -14 q 130 93 210 -14 q 50 370 50 199 q 50 379 50 375 m 426 557 q 412 586 426 557 q 343 615 399 615 q 261 557 287 615 q 235 379 235 499 q 261 200 235 259 q 343 140 287 140 q 452 379 452 140 q 426 557 452 498 z "},"ó":{"ha":686,"x_min":50,"x_max":636,"o":"m 581 1064 l 581 1050 q 502 958 565 1022 q 375 842 439 895 l 248 842 l 248 860 q 313 963 275 895 q 365 1064 351 1031 l 581 1064 m 50 379 q 128 667 50 564 q 342 770 206 770 q 557 664 479 770 q 636 376 636 559 q 557 90 636 194 q 342 -14 479 -14 q 337 -14 339 -14 q 130 93 210 -14 q 50 370 50 199 q 50 379 50 375 m 426 557 q 412 586 426 557 q 343 615 399 615 q 261 557 287 615 q 235 379 235 499 q 261 200 235 259 q 343 140 287 140 q 452 379 452 140 q 426 557 452 498 z "},"ô":{"ha":686,"x_min":50,"x_max":636,"o":"m 585 842 l 471 842 q 342 962 405 891 q 216 842 283 895 l 102 842 l 102 860 q 250 1064 222 1011 l 437 1064 q 585 860 467 1008 l 585 842 m 50 379 q 128 667 50 564 q 342 770 206 770 q 557 664 479 770 q 636 376 636 559 q 557 90 636 194 q 342 -14 479 -14 q 337 -14 339 -14 q 130 93 210 -14 q 50 370 50 199 q 50 379 50 375 m 426 557 q 412 586 426 557 q 343 615 399 615 q 261 557 287 615 q 235 379 235 499 q 261 200 235 259 q 343 140 287 140 q 452 379 452 140 q 426 557 452 498 z "},"õ":{"ha":686,"x_min":50,"x_max":636,"o":"m 437 842 q 384 853 410 842 q 340 878 357 864 q 263 914 295 914 q 229 898 241 914 q 210 840 216 881 l 115 840 q 160 993 122 942 q 263 1044 199 1044 q 316 1033 290 1044 q 359 1008 342 1022 q 438 972 406 972 q 471 989 460 972 q 490 1046 481 1006 l 585 1046 q 539 893 578 945 q 437 842 500 842 m 50 379 q 128 667 50 564 q 342 770 206 770 q 557 664 479 770 q 636 376 636 559 q 557 90 636 194 q 342 -14 479 -14 q 337 -14 339 -14 q 130 93 210 -14 q 50 370 50 199 q 50 379 50 375 m 426 557 q 412 586 426 557 q 343 615 399 615 q 261 557 287 615 q 235 379 235 499 q 261 200 235 259 q 343 140 287 140 q 452 379 452 140 q 426 557 452 498 z "},"ö":{"ha":686,"x_min":50,"x_max":636,"o":"m 142 1016 q 154 1027 142 1016 q 208 1039 166 1039 q 274 1015 250 1039 q 298 951 298 991 q 274 889 298 912 q 208 865 250 865 q 142 888 166 865 q 119 952 119 911 q 142 1016 119 993 m 389 952 q 389 972 389 952 q 412 1016 389 992 q 478 1039 436 1039 q 545 1016 520 1039 q 569 952 569 992 q 545 888 569 911 q 479 865 521 865 q 413 889 437 865 q 389 952 389 912 m 50 379 q 128 667 50 564 q 342 770 206 770 q 557 664 479 770 q 636 376 636 559 q 557 90 636 194 q 342 -14 479 -14 q 337 -14 339 -14 q 130 93 210 -14 q 50 370 50 199 q 50 379 50 375 m 426 557 q 412 586 426 557 q 343 615 399 615 q 261 557 287 615 q 235 379 235 499 q 261 200 235 259 q 343 140 287 140 q 452 379 452 140 q 426 557 452 498 z "},"÷":{"ha":623,"x_min":72,"x_max":550,"o":"m 310 825 q 393 726 393 825 q 371 654 393 681 q 310 628 349 628 q 248 652 271 628 q 225 726 225 676 q 310 825 225 825 m 550 419 l 72 419 l 72 559 l 550 559 l 550 419 m 310 351 q 372 326 351 351 q 393 254 393 300 q 371 180 393 207 q 310 154 349 154 q 248 178 271 154 q 225 253 225 203 q 310 351 225 351 z "},"ø":{"ha":686,"x_min":50,"x_max":636,"o":"m 558 661 q 636 377 636 561 q 557 90 636 194 q 342 -14 479 -14 q 229 11 279 -14 l 191 -65 l 81 -14 l 134 89 q 50 378 50 193 q 128 667 50 564 q 345 770 206 770 q 464 742 410 770 l 498 807 l 607 757 l 558 661 m 343 615 q 229 379 229 615 l 229 330 l 231 282 l 396 604 q 343 615 374 615 m 343 140 q 429 201 399 140 q 458 379 458 261 l 456 458 l 297 149 q 343 140 315 140 z "},"ù":{"ha":704,"x_min":69,"x_max":629,"o":"m 109 1064 l 324 1064 q 378 958 341 1027 q 441 860 416 893 l 441 842 l 314 842 q 192 952 260 885 q 109 1050 125 1020 l 109 1064 m 629 0 l 485 0 l 463 97 l 453 97 q 381 16 428 45 q 275 -14 334 -14 q 69 262 69 -14 l 69 755 l 252 755 l 252 306 q 272 180 252 222 q 335 139 292 139 q 420 197 393 139 q 447 393 447 254 l 447 755 l 629 755 l 629 0 z "},"ú":{"ha":704,"x_min":69,"x_max":629,"o":"m 591 1064 l 591 1050 q 512 958 575 1022 q 385 842 449 895 l 258 842 l 258 860 q 323 963 286 895 q 375 1064 361 1031 l 591 1064 m 629 0 l 485 0 l 463 97 l 453 97 q 381 16 428 45 q 275 -14 334 -14 q 69 262 69 -14 l 69 755 l 252 755 l 252 306 q 272 180 252 222 q 335 139 292 139 q 420 197 393 139 q 447 393 447 254 l 447 755 l 629 755 l 629 0 z "},"û":{"ha":704,"x_min":69,"x_max":629,"o":"m 593 842 l 479 842 q 351 962 413 891 q 224 842 292 895 l 111 842 l 111 860 q 258 1064 230 1011 l 446 1064 q 593 860 475 1008 l 593 842 m 629 0 l 485 0 l 463 97 l 453 97 q 381 16 428 45 q 275 -14 334 -14 q 69 262 69 -14 l 69 755 l 252 755 l 252 306 q 272 180 252 222 q 335 139 292 139 q 420 197 393 139 q 447 393 447 254 l 447 755 l 629 755 l 629 0 z "},"ü":{"ha":704,"x_min":69,"x_max":629,"o":"m 149 1016 q 161 1027 149 1016 q 215 1039 173 1039 q 281 1015 257 1039 q 305 951 305 991 q 281 889 305 912 q 215 865 257 865 q 149 888 173 865 q 125 952 125 911 q 149 1016 125 993 m 395 952 q 395 972 395 952 q 419 1016 395 992 q 485 1039 443 1039 q 551 1016 527 1039 q 576 952 576 992 q 552 888 576 911 q 486 865 528 865 q 419 889 444 865 q 395 952 395 912 m 629 0 l 485 0 l 463 97 l 453 97 q 381 16 428 45 q 275 -14 334 -14 q 69 262 69 -14 l 69 755 l 252 755 l 252 306 q 272 180 252 222 q 335 139 292 139 q 420 197 393 139 q 447 393 447 254 l 447 755 l 629 755 l 629 0 z "},"ý":{"ha":619,"x_min":0,"x_max":619,"o":"m 543 1064 l 543 1050 q 464 958 527 1022 q 337 842 401 895 l 210 842 l 210 860 q 275 963 237 895 q 327 1064 313 1031 l 543 1064 m 125 -334 q 29 -322 72 -334 l 29 -171 q 92 -179 56 -179 q 211 -60 182 -179 l 224 -12 l 0 755 l 187 755 l 292 329 q 317 170 308 268 l 321 170 q 327 227 321 185 l 336 293 q 429 755 339 318 l 619 755 l 403 -54 q 298 -269 363 -204 q 125 -334 233 -334 z "},"þ":{"ha":689,"x_min":77,"x_max":639,"o":"m 257 808 q 248 657 257 779 l 257 657 q 328 744 289 718 q 419 770 366 770 q 581 667 523 770 q 639 380 639 565 q 579 91 639 196 q 412 -14 519 -14 q 326 9 363 -14 q 257 86 288 33 l 248 86 q 258 -25 258 -3 l 258 -334 l 77 -334 l 77 1055 l 257 1055 l 257 808 m 257 380 q 281 198 257 255 q 359 142 305 142 q 454 379 454 142 q 358 616 454 616 q 282 567 305 616 q 257 404 258 518 l 257 380 z "},"ÿ":{"ha":619,"x_min":0,"x_max":619,"o":"m 109 1016 q 120 1027 109 1016 q 174 1039 132 1039 q 240 1015 216 1039 q 264 951 264 991 q 240 889 264 912 q 174 865 216 865 q 109 888 132 865 q 85 952 85 911 q 109 1016 85 993 m 355 952 q 355 972 355 952 q 378 1016 355 992 q 444 1039 402 1039 q 511 1016 486 1039 q 535 952 535 992 q 511 888 535 911 q 445 865 487 865 q 379 889 403 865 q 355 952 355 912 m 125 -334 q 29 -322 72 -334 l 29 -171 q 92 -179 56 -179 q 211 -60 182 -179 l 224 -12 l 0 755 l 187 755 l 292 329 q 317 170 308 268 l 321 170 q 327 227 321 185 l 336 293 q 429 755 339 318 l 619 755 l 403 -54 q 298 -269 363 -204 q 125 -334 233 -334 z "},"ı":{"ha":336,"x_min":78,"x_max":258,"o":"m 258 0 l 78 0 l 78 755 l 258 755 l 258 0 z "},"Œ":{"ha":981,"x_min":57,"x_max":922,"o":"m 922 0 l 515 0 q 414 -14 463 -14 q 149 118 242 -14 q 57 497 57 250 q 150 876 57 745 q 415 1007 242 1007 q 522 991 469 1007 l 922 991 l 922 832 l 663 832 l 663 596 l 903 596 l 903 436 l 663 436 l 663 161 l 922 161 l 922 0 m 415 844 q 289 756 332 844 q 245 498 245 668 q 288 239 245 328 q 414 150 331 150 q 478 160 450 150 l 478 835 q 415 844 446 844 z "},"œ":{"ha":1039,"x_min":50,"x_max":996,"o":"m 757 -14 q 545 82 623 -14 q 342 -14 467 -14 q 337 -14 339 -14 q 130 93 210 -14 q 50 370 50 199 q 50 379 50 375 q 128 667 50 564 q 345 770 206 770 q 541 675 462 770 q 734 770 613 770 q 925 679 854 770 q 996 428 996 588 l 996 332 l 635 332 q 675 182 637 233 q 783 132 714 132 q 965 187 872 132 l 965 39 q 757 -14 876 -14 m 821 463 q 795 588 819 545 q 731 631 772 631 q 666 588 690 631 q 637 463 642 546 l 821 463 m 426 557 q 412 586 426 557 q 343 615 399 615 q 261 557 287 615 q 235 379 235 499 q 261 200 235 259 q 343 140 287 140 q 452 379 452 140 q 426 557 452 498 z "},"Š":{"ha":574,"x_min":46,"x_max":539,"o":"m 537 1293 l 537 1275 q 390 1071 426 1134 l 202 1071 q 55 1275 174 1123 l 55 1293 l 169 1293 q 298 1173 235 1244 q 423 1293 359 1240 l 537 1293 m 250 147 q 330 176 302 147 q 357 254 357 204 q 325 346 357 304 q 226 433 294 387 q 123 522 159 479 q 72 613 90 562 q 54 729 54 663 q 125 931 54 857 q 313 1006 196 1006 q 534 942 430 1006 l 473 794 q 329 843 389 843 q 260 814 285 843 q 236 734 236 785 q 264 646 236 684 q 366 561 294 608 q 500 428 464 495 q 539 273 539 359 q 469 60 539 134 q 268 -14 399 -14 q 46 37 137 -14 l 46 220 q 250 147 157 147 z "},"š":{"ha":519,"x_min":19,"x_max":501,"o":"m 501 1064 l 501 1046 q 354 842 390 905 l 166 842 q 19 1046 138 894 l 19 1064 l 133 1064 q 262 943 199 1015 q 387 1064 323 1011 l 501 1064 m 41 187 q 129 144 80 161 q 217 127 177 127 q 280 148 258 127 q 302 203 302 168 q 279 264 302 238 q 195 326 255 290 q 77 430 113 375 q 41 561 41 486 q 107 714 41 658 q 281 770 174 770 q 478 717 389 770 l 419 587 q 292 627 347 627 q 240 609 258 627 q 222 562 222 591 q 243 510 222 532 q 329 447 264 487 q 422 378 394 408 q 482 221 482 315 q 417 48 482 109 q 233 -14 351 -14 q 41 31 115 -14 l 41 187 z "},"Ÿ":{"ha":652,"x_min":0,"x_max":652,"o":"m 125 1245 q 137 1257 125 1245 q 191 1268 149 1268 q 257 1244 233 1268 q 281 1181 281 1220 q 257 1118 281 1141 q 191 1095 233 1095 q 125 1117 149 1095 q 102 1181 102 1140 q 125 1245 102 1222 m 372 1181 q 372 1201 372 1181 q 395 1245 372 1221 q 461 1268 419 1268 q 528 1245 503 1268 q 552 1181 552 1221 q 528 1118 552 1141 q 462 1095 504 1095 q 396 1118 420 1095 q 372 1181 372 1141 m 416 0 l 235 0 l 235 390 l 0 991 l 195 991 l 326 600 l 458 991 l 652 991 l 416 397 l 416 0 z "},"Ž":{"ha":595,"x_min":29,"x_max":566,"o":"m 537 1293 l 537 1275 q 390 1071 426 1134 l 202 1071 q 55 1275 174 1123 l 55 1293 l 169 1293 q 298 1173 235 1244 q 423 1293 359 1240 l 537 1293 m 566 161 l 566 0 l 29 0 l 29 129 l 346 831 l 39 831 l 39 991 l 555 991 l 555 863 l 239 161 l 566 161 z "},"ž":{"ha":496,"x_min":9,"x_max":491,"o":"m 491 1064 l 491 1046 q 344 842 380 905 l 156 842 q 9 1046 128 894 l 9 1064 l 123 1064 q 252 943 189 1015 q 377 1064 313 1011 l 491 1064 m 468 146 l 468 0 l 28 0 l 28 115 l 260 610 l 43 610 l 43 755 l 458 755 l 458 628 l 233 146 l 468 146 z "},"ƒ":{"ha":643,"x_min":33,"x_max":607,"o":"m 203 757 q 259 946 203 886 q 441 1006 316 1006 q 607 975 534 1006 l 561 835 q 468 854 508 854 q 411 828 429 854 q 393 750 393 802 l 393 699 l 542 699 l 542 554 l 392 554 l 392 -82 q 330 -270 392 -205 q 150 -334 268 -334 q 33 -318 90 -334 l 33 -167 q 116 -179 73 -179 q 181 -150 159 -179 q 203 -58 203 -121 l 203 554 l 90 554 l 90 646 l 203 699 l 203 757 z "},"ˆ":{"ha":770,"x_min":143,"x_max":625,"o":"m 625 842 l 511 842 q 383 962 446 891 q 257 842 324 895 l 143 842 l 143 860 q 290 1064 262 1011 l 478 1064 q 625 860 508 1008 l 625 842 z "},"ˇ":{"ha":770,"x_min":143,"x_max":625,"o":"m 625 1064 l 625 1046 q 478 842 514 905 l 290 842 q 143 1046 262 894 l 143 1064 l 257 1064 q 386 943 323 1015 q 511 1064 447 1011 l 625 1064 z "},"˘":{"ha":764,"x_min":171,"x_max":591,"o":"m 591 1063 q 529 899 584 956 q 377 842 473 842 q 228 899 281 842 q 171 1063 175 956 l 279 1063 q 304 996 285 1015 q 379 978 324 978 q 454 997 433 978 q 482 1063 475 1015 l 591 1063 z "},"˙":{"ha":386,"x_min":89,"x_max":297,"o":"m 193 856 q 89 953 89 856 q 193 1050 89 1050 q 297 953 297 1050 q 270 881 297 905 q 193 856 243 856 z "},"˚":{"ha":757,"x_min":211,"x_max":546,"o":"m 256 882 q 211 999 211 925 q 257 1115 211 1073 q 376 1157 302 1157 q 498 1113 450 1157 q 546 998 546 1069 q 499 884 546 927 q 377 840 452 840 q 256 882 302 840 m 425 1048 q 415 1057 425 1048 q 376 1067 406 1067 q 328 1048 347 1067 q 309 998 309 1029 q 326 948 309 966 q 375 930 343 930 q 425 949 406 930 q 444 999 444 968 q 425 1048 444 1029 z "},"˛":{"ha":282,"x_min":-17,"x_max":269,"o":"m 269 -176 q 220 -292 269 -251 q 72 -334 171 -334 q -17 -319 23 -334 l -17 -215 q 65 -227 26 -227 q 125 -182 125 -227 q 18 -107 125 -124 l 72 0 l 189 0 l 164 -52 q 241 -96 212 -64 q 269 -176 269 -127 z "},"˜":{"ha":770,"x_min":150,"x_max":621,"o":"m 472 842 q 419 853 445 842 q 376 878 393 864 q 298 914 330 914 q 264 898 277 914 q 245 840 252 881 l 150 840 q 196 993 157 942 q 298 1044 234 1044 q 351 1033 325 1044 q 395 1008 377 1022 q 473 972 441 972 q 506 989 495 972 q 525 1046 517 1006 l 621 1046 q 574 893 613 945 q 472 842 535 842 z "},"˝":{"ha":779,"x_min":103,"x_max":676,"o":"m 411 1064 l 411 1050 q 325 951 391 1017 q 205 842 259 886 l 103 842 l 103 860 q 165 959 130 897 q 221 1064 201 1021 l 411 1064 m 676 1064 l 676 1050 q 593 956 659 1019 q 469 842 528 890 l 368 842 l 368 860 q 431 959 395 897 q 486 1064 466 1021 l 676 1064 z "},"ְ":{"ha":0,"x_min":-64,"x_max":63,"o":"m -64 -127 q -64 -114 -64 -127 q -47 -84 -64 -100 q 0 -68 -30 -68 q 46 -84 29 -68 q 63 -127 63 -100 q 46 -170 63 -155 q 0 -186 29 -186 q -47 -170 -30 -186 q -64 -127 -64 -155 m -64 -291 q -64 -277 -64 -291 q -47 -248 -64 -264 q 0 -232 -30 -232 q 46 -248 29 -232 q 63 -291 63 -264 q 46 -333 63 -317 q 0 -349 29 -349 q -47 -334 -30 -349 q -64 -291 -64 -318 z "},"ֱ":{"ha":0,"x_min":-254,"x_max":254,"o":"m -237 -95 q -228 -87 -237 -95 q -191 -79 -220 -79 q -144 -95 -161 -79 q -127 -138 -127 -111 q -144 -180 -127 -165 q -191 -196 -161 -196 q -237 -180 -220 -196 q -254 -138 -254 -165 q -237 -95 -254 -111 m -53 -138 q -53 -124 -53 -138 q -36 -94 -53 -110 q 11 -79 -19 -79 q 58 -95 40 -79 q 75 -138 75 -111 q 58 -180 75 -165 q 10 -196 40 -196 q -36 -181 -20 -196 q -53 -138 -53 -165 m 127 -138 q 127 -124 127 -138 q 144 -95 127 -111 q 191 -79 161 -79 q 237 -95 220 -79 q 254 -138 254 -111 q 237 -180 254 -165 q 191 -196 220 -196 q 144 -180 161 -196 q 127 -138 127 -165 m -134 -258 q -125 -250 -134 -258 q -87 -242 -117 -242 q -41 -258 -58 -242 q -24 -301 -24 -274 q -41 -343 -24 -328 q -88 -359 -58 -359 q -134 -344 -117 -359 q -151 -301 -151 -328 q -134 -258 -151 -273 m 127 -301 q 127 -288 127 -301 q 144 -258 127 -274 q 191 -242 161 -242 q 237 -258 220 -242 q 254 -301 254 -274 q 237 -343 254 -328 q 191 -359 220 -359 q 144 -344 161 -359 q 127 -301 127 -328 z "},"ֲ":{"ha":0,"x_min":-216,"x_max":216,"o":"m 107 -94 q 116 -86 107 -94 q 153 -79 124 -79 q 199 -95 182 -79 q 216 -138 216 -111 q 199 -180 216 -165 q 153 -196 182 -196 q 107 -180 123 -196 q 90 -137 90 -165 q 107 -94 90 -110 m 33 -176 l -216 -176 l -216 -96 l 33 -96 l 33 -176 m 107 -258 q 116 -250 107 -258 q 153 -242 124 -242 q 199 -258 182 -242 q 216 -301 216 -274 q 199 -343 216 -328 q 153 -359 182 -359 q 107 -344 123 -359 q 90 -301 90 -328 q 107 -258 90 -273 z "},"ֳ":{"ha":0,"x_min":-218,"x_max":218,"o":"m 91 -138 q 91 -124 91 -138 q 108 -95 91 -111 q 154 -79 125 -79 q 201 -95 184 -79 q 218 -138 218 -111 q 201 -180 218 -165 q 154 -196 184 -196 q 108 -180 125 -196 q 91 -138 91 -165 m 31 -176 l -56 -176 l -56 -313 l -131 -313 l -131 -176 l -218 -176 l -218 -96 l 31 -96 l 31 -176 m 91 -301 q 91 -288 91 -301 q 108 -258 91 -274 q 154 -242 125 -242 q 201 -258 184 -242 q 218 -301 218 -274 q 201 -343 218 -328 q 154 -359 184 -359 q 108 -344 125 -359 q 91 -301 91 -328 z "},"ִ":{"ha":0,"x_min":-64,"x_max":64,"o":"m -64 -134 q -64 -120 -64 -134 q -47 -91 -64 -106 q 0 -75 -30 -75 q 47 -92 29 -75 q 64 -134 64 -108 q 47 -177 64 -161 q -1 -193 29 -193 q -47 -177 -31 -193 q -64 -134 -64 -162 z "},"ֵ":{"ha":0,"x_min":-164,"x_max":165,"o":"m -147 -78 q -139 -70 -147 -78 q -101 -62 -130 -62 q -55 -78 -72 -62 q -38 -121 -38 -94 q -55 -164 -38 -148 q -101 -180 -72 -180 q -148 -164 -131 -180 q -164 -121 -164 -149 q -147 -78 -164 -94 m 36 -121 q 36 -107 36 -121 q 53 -78 36 -94 q 100 -62 70 -62 q 147 -79 130 -62 q 165 -121 165 -95 q 147 -164 165 -148 q 100 -180 130 -180 q 53 -164 70 -180 q 36 -121 36 -149 z "},"ֶ":{"ha":0,"x_min":-166,"x_max":163,"o":"m -149 -94 q -141 -86 -149 -94 q -103 -79 -132 -79 q -57 -95 -74 -79 q -40 -138 -40 -111 q -57 -180 -40 -165 q -103 -196 -74 -196 q -150 -180 -133 -196 q -166 -137 -166 -165 q -149 -94 -166 -110 m 34 -138 q 34 -124 34 -138 q 51 -94 34 -110 q 98 -79 68 -79 q 145 -95 127 -79 q 163 -138 163 -111 q 145 -180 163 -165 q 98 -196 127 -196 q 51 -181 68 -196 q 34 -138 34 -165 m -64 -301 q -64 -288 -64 -301 q -47 -258 -64 -274 q 0 -242 -30 -242 q 46 -258 29 -242 q 63 -301 63 -274 q 46 -343 63 -328 q 0 -359 29 -359 q -47 -344 -30 -359 q -64 -301 -64 -328 z "},"ַ":{"ha":0,"x_min":-133,"x_max":134,"o":"m 134 -159 l -133 -159 l -133 -80 l 134 -80 l 134 -159 z "},"ָ":{"ha":0,"x_min":-130,"x_max":130,"o":"m 130 -173 l 37 -173 l 37 -310 l -38 -310 l -38 -173 l -130 -173 l -130 -94 l 130 -94 l 130 -173 z "},"ֹ":{"ha":0,"x_min":-62,"x_max":66,"o":"m -62 1015 q -62 1028 -62 1015 q -45 1058 -62 1042 q 1 1074 -28 1074 q 48 1057 31 1074 q 66 1015 66 1041 q 48 972 66 988 q 1 956 31 956 q -46 971 -29 956 q -62 1015 -62 987 z "},"ֺ":{"ha":0,"x_min":-64,"x_max":64,"o":"m -64 1015 q -64 1028 -64 1015 q -47 1058 -64 1042 q 0 1074 -30 1074 q 47 1057 29 1074 q 64 1015 64 1041 q 47 972 64 988 q -1 956 29 956 q -47 971 -31 956 q -64 1015 -64 987 z "},"ֻ":{"ha":0,"x_min":-123,"x_max":254,"o":"m -106 -102 q -97 -94 -106 -102 q -60 -86 -89 -86 q -14 -102 -31 -86 q 3 -145 3 -118 q -14 -188 3 -172 q -60 -203 -31 -203 q -106 -188 -90 -203 q -123 -145 -123 -172 q -106 -102 -123 -117 m 0 -264 q 0 -251 0 -264 q 17 -221 0 -237 q 63 -205 34 -205 q 110 -221 93 -205 q 127 -264 127 -237 q 110 -307 127 -291 q 63 -323 93 -323 q 17 -307 34 -323 q 0 -264 0 -292 m 125 -383 q 125 -369 125 -383 q 142 -340 125 -355 q 189 -324 159 -324 q 236 -340 218 -324 q 254 -383 254 -357 q 236 -426 254 -410 q 189 -441 218 -441 q 142 -426 159 -441 q 125 -383 125 -411 z "},"ּ":{"ha":0,"x_min":-64,"x_max":64,"o":"m -64 445 q -64 459 -64 445 q -47 488 -64 473 q 0 504 -30 504 q 47 488 29 504 q 64 445 64 471 q 47 402 64 418 q -1 387 29 387 q -47 402 -31 387 q -64 445 -64 417 z "},"ֽ":{"ha":0,"x_min":-35,"x_max":35,"o":"m 35 -345 l -35 -345 l -35 -106 l 35 -106 l 35 -345 z "},"־":{"ha":439,"x_min":49,"x_max":390,"o":"m 390 716 l 49 716 l 49 875 l 390 875 l 390 716 z "},"ׁ":{"ha":0,"x_min":-64,"x_max":64,"o":"m -64 1015 q -64 1028 -64 1015 q -47 1058 -64 1042 q 0 1074 -30 1074 q 47 1057 29 1074 q 64 1015 64 1041 q 47 972 64 988 q -1 956 29 956 q -47 971 -31 956 q -64 1015 -64 987 z "},"ׂ":{"ha":0,"x_min":-64,"x_max":64,"o":"m -64 1015 q -64 1028 -64 1015 q -47 1058 -64 1042 q 0 1074 -30 1074 q 47 1057 29 1074 q 64 1015 64 1041 q 47 972 64 988 q -1 956 29 956 q -47 971 -31 956 q -64 1015 -64 987 z "},"ׇ":{"ha":0,"x_min":-139,"x_max":139,"o":"m 139 -142 l 30 -142 l 30 -301 l -33 -301 l -33 -142 l -139 -142 l -139 -75 l 139 -75 l 139 -142 z "},"א":{"ha":694,"x_min":41,"x_max":657,"o":"m 657 875 l 657 562 q 616 395 657 454 q 571 350 600 372 q 503 313 543 328 l 650 0 l 441 0 l 267 415 q 238 315 238 386 l 238 0 l 58 0 l 58 313 q 63 382 58 352 q 81 447 68 412 q 199 555 109 517 l 41 875 l 250 875 l 380 575 l 438 450 q 477 559 476 479 l 477 875 l 657 875 z "},"ב":{"ha":629,"x_min":57,"x_max":606,"o":"m 57 878 q 211 888 138 888 q 326 882 285 888 q 396 863 366 875 q 447 830 425 850 q 481 787 468 810 q 502 730 494 764 q 515 584 515 674 l 515 146 l 606 146 l 606 0 l 57 0 l 57 146 l 334 146 l 334 585 q 307 708 334 674 q 207 741 280 741 q 73 732 123 741 l 57 730 l 57 878 z "},"ג":{"ha":533,"x_min":25,"x_max":464,"o":"m 203 737 q 113 722 162 737 l 113 873 q 223 888 159 888 q 331 876 288 888 q 400 842 374 863 q 440 785 425 821 q 459 714 454 750 q 464 628 464 679 l 464 0 l 334 0 l 303 127 l 293 127 q 270 81 288 109 q 232 36 252 54 q 175 2 212 17 q 102 -14 138 -14 q 25 -6 67 -14 l 40 161 q 61 157 42 159 q 96 155 79 155 q 222 182 172 155 q 272 243 260 202 q 283 357 283 283 l 283 628 q 203 737 283 737 z "},"ד":{"ha":572,"x_min":18,"x_max":560,"o":"m 560 875 l 560 737 q 457 555 457 699 l 457 0 l 277 0 l 277 560 q 287 628 277 597 q 313 675 298 659 q 369 720 343 711 l 379 724 l 379 729 l 18 729 l 18 875 l 560 875 z "},"ה":{"ha":704,"x_min":77,"x_max":635,"o":"m 192 879 q 232 884 192 879 q 338 888 273 888 q 444 882 404 888 q 514 863 485 875 q 565 830 544 850 q 600 787 587 810 q 621 730 614 764 q 635 584 635 674 l 635 0 l 454 0 l 454 585 q 427 708 454 674 q 326 741 399 741 q 214 735 276 741 q 114 722 151 728 l 77 715 l 77 859 q 192 879 111 870 m 258 0 l 77 0 l 77 558 l 258 558 l 258 0 z "},"ו":{"ha":334,"x_min":77,"x_max":257,"o":"m 257 0 l 77 0 l 77 875 l 257 875 l 257 0 z "},"ז":{"ha":387,"x_min":66,"x_max":367,"o":"m 367 875 l 367 729 q 328 652 353 706 q 289 531 303 599 q 273 416 275 463 q 271 294 271 369 l 271 0 l 90 0 l 90 294 q 119 530 90 436 q 180 664 148 622 q 231 719 213 707 l 239 724 l 239 729 l 66 729 l 66 875 l 367 875 z "},"ח":{"ha":704,"x_min":77,"x_max":635,"o":"m 77 0 l 77 859 q 352 888 219 888 q 566 830 503 888 q 621 730 608 791 q 635 584 635 674 l 635 0 l 454 0 l 454 585 q 427 708 454 674 q 326 741 399 741 q 258 735 300 741 l 258 0 l 77 0 z "},"ט":{"ha":704,"x_min":69,"x_max":654,"o":"m 315 882 q 391 888 349 888 q 477 868 434 888 q 548 813 519 848 q 598 733 577 777 q 631 637 620 690 q 654 447 654 536 q 642 289 654 357 q 612 176 631 222 q 568 95 594 130 q 516 40 543 60 q 460 7 490 20 q 408 -9 431 -5 q 361 -14 385 -14 q 315 -9 338 -14 q 262 7 292 -5 q 207 40 233 20 q 155 95 180 60 q 111 175 129 130 q 69 437 69 279 l 69 873 l 254 873 l 254 438 q 285 194 254 262 q 319 148 300 161 q 361 134 337 134 q 404 148 386 134 q 438 194 422 161 q 461 289 453 227 q 469 438 469 350 q 461 587 469 526 q 438 681 453 648 q 404 728 422 714 q 361 741 386 741 l 315 737 l 315 882 z "},"י":{"ha":334,"x_min":77,"x_max":257,"o":"m 77 296 l 77 875 l 257 875 l 257 471 l 146 296 l 77 296 z "},"ך":{"ha":557,"x_min":37,"x_max":488,"o":"m 37 870 q 197 888 118 888 q 327 866 276 888 q 407 809 377 844 q 456 722 437 774 q 481 617 475 669 q 488 500 488 564 l 488 -334 l 307 -334 l 307 500 q 283 661 307 595 q 249 714 271 695 q 195 734 226 734 q 37 720 138 734 l 37 870 z "},"כ":{"ha":538,"x_min":37,"x_max":488,"o":"m 37 870 q 197 888 118 888 q 327 866 276 888 q 407 809 377 844 q 456 722 437 774 q 481 617 475 669 q 488 500 488 564 l 488 354 q 452 149 488 236 q 401 65 432 100 q 321 8 370 30 q 209 -14 272 -14 q 37 7 107 -14 l 37 163 q 195 141 111 141 q 302 354 302 141 l 302 500 q 195 734 302 734 q 37 723 140 734 l 37 870 z "},"ל":{"ha":558,"x_min":29,"x_max":529,"o":"m 210 875 l 529 875 l 529 753 l 414 337 l 345 0 l 170 0 l 239 337 l 347 729 l 29 729 l 29 1055 l 210 1055 l 210 875 z "},"ם":{"ha":704,"x_min":77,"x_max":635,"o":"m 77 0 l 77 869 q 184 882 107 876 q 332 888 260 888 q 444 882 404 888 q 514 863 485 875 q 565 830 544 850 q 600 787 587 810 q 621 730 614 764 q 635 584 635 674 l 635 0 l 77 0 m 454 146 l 454 585 q 427 708 454 674 q 326 741 399 741 q 258 739 277 741 l 258 146 l 454 146 z "},"מ":{"ha":734,"x_min":29,"x_max":665,"o":"m 310 842 q 321 850 310 842 q 370 874 332 859 q 452 888 408 888 q 531 874 496 888 q 588 833 566 860 q 627 772 611 806 q 650 693 642 739 q 665 507 665 608 l 665 0 l 321 0 l 321 146 l 484 146 l 484 506 q 390 736 484 736 q 340 722 363 736 q 304 686 317 707 q 264 610 273 642 l 260 595 l 209 0 l 29 0 l 77 568 q 79 624 79 595 q 54 798 79 709 l 30 875 l 201 875 q 222 814 212 849 l 236 753 l 245 753 q 271 799 253 773 q 310 842 289 824 z "},"ן":{"ha":321,"x_min":24,"x_max":244,"o":"m 244 559 l 244 -334 l 64 -334 l 64 559 q 54 728 64 649 q 34 841 44 807 l 24 875 l 205 875 q 216 838 209 862 q 233 731 222 813 q 244 559 244 649 z "},"נ":{"ha":485,"x_min":29,"x_max":416,"o":"m 197 728 q 151 737 180 737 q 69 724 121 737 l 69 875 q 179 888 133 888 q 260 882 224 888 q 320 864 295 875 q 362 834 345 852 q 390 795 380 815 q 406 746 400 775 q 416 628 416 701 l 416 248 q 407 122 416 184 q 391 30 399 60 l 382 0 l 29 0 l 29 146 l 223 146 q 235 302 235 198 l 235 628 q 197 728 235 706 z "},"ס":{"ha":685,"x_min":50,"x_max":635,"o":"m 342 888 q 432 872 392 888 q 497 836 471 856 q 549 781 524 816 q 593 700 575 746 q 623 587 612 654 q 635 438 635 519 q 623 289 635 357 q 593 176 612 222 q 549 95 575 130 q 497 40 524 60 q 441 7 471 20 q 389 -9 412 -5 q 342 -14 366 -14 q 296 -9 319 -14 q 243 7 273 -5 q 188 40 214 20 q 136 95 161 60 q 92 176 110 130 q 50 438 50 279 q 80 606 50 522 q 149 726 111 690 l 149 731 l 59 725 l 59 869 q 342 888 178 888 m 349 741 q 295 735 323 741 q 247 617 260 686 q 235 449 235 548 q 243 289 235 350 q 266 194 251 227 q 300 148 281 161 q 342 134 318 134 q 385 148 367 134 q 419 194 404 161 q 442 289 434 227 q 450 438 450 350 q 442 587 450 526 q 419 681 434 648 q 349 741 391 741 z "},"ע":{"ha":659,"x_min":29,"x_max":631,"o":"m 283 480 l 319 211 q 383 321 357 256 q 414 452 408 387 l 450 874 l 631 874 l 597 482 q 568 307 587 369 q 512 178 545 229 q 404 68 465 107 q 227 -3 330 18 l 35 -41 l 35 107 l 177 136 l 29 875 l 209 875 l 283 480 z "},"ף":{"ha":682,"x_min":37,"x_max":612,"o":"m 91 385 q 79 400 91 385 q 52 464 68 414 q 37 584 37 514 q 60 715 37 654 q 125 812 84 775 q 320 888 207 888 q 409 872 370 888 q 475 836 449 856 q 527 781 501 816 q 571 700 553 746 q 612 438 612 597 l 612 -334 l 432 -334 l 432 438 q 399 681 432 616 q 363 727 382 713 q 316 741 345 741 q 266 721 288 741 q 235 671 243 701 q 220 586 220 623 q 317 436 220 454 l 342 431 l 308 289 l 272 294 q 210 307 238 298 q 148 335 181 315 q 91 385 114 355 z "},"פ":{"ha":662,"x_min":37,"x_max":612,"o":"m 91 385 q 79 400 91 385 q 52 464 68 414 q 37 584 37 514 q 60 715 37 654 q 125 812 84 775 q 320 888 207 888 q 409 872 370 888 q 475 836 449 856 q 527 781 501 816 q 571 700 553 746 q 601 587 589 654 q 612 438 612 519 q 601 289 612 357 q 571 176 589 222 q 527 95 553 130 q 475 40 501 60 q 419 7 449 20 q 317 -14 370 -14 q 212 -9 264 -14 q 135 1 159 -4 l 111 5 l 111 157 q 320 134 241 134 q 363 148 345 134 q 396 194 381 161 q 420 289 412 227 q 428 438 428 350 q 420 587 428 526 q 396 681 412 648 q 363 728 381 714 q 316 741 345 741 q 266 721 288 741 q 235 671 243 701 q 220 586 220 623 q 317 436 220 454 l 342 431 l 308 289 l 272 294 q 210 307 238 298 q 148 335 181 315 q 91 385 114 355 z "},"ץ":{"ha":644,"x_min":8,"x_max":593,"o":"m 593 875 l 593 549 q 328 295 593 295 l 317 295 l 317 -334 l 136 -334 l 136 391 l 8 875 l 208 875 l 292 448 l 296 424 l 312 424 q 389 452 366 424 q 413 547 413 481 l 413 875 l 593 875 z "},"צ":{"ha":680,"x_min":39,"x_max":651,"o":"m 610 0 l 46 0 l 46 146 l 281 146 l 397 136 l 397 139 l 285 311 l 39 875 l 227 875 l 387 496 q 431 571 415 531 q 454 683 447 612 l 470 874 l 651 874 l 637 713 q 630 653 633 677 q 616 580 627 629 q 588 494 604 531 q 540 412 571 456 q 467 334 509 367 l 610 107 l 610 0 z "},"ק":{"ha":717,"x_min":91,"x_max":688,"o":"m 519 23 l 519 0 l 340 0 l 340 23 q 392 342 340 149 l 492 729 l 91 729 l 91 875 l 688 875 l 688 762 l 580 349 q 534 155 549 229 q 519 23 519 81 m 271 -334 l 91 -334 l 91 524 l 271 524 l 271 -334 z "},"ר":{"ha":557,"x_min":29,"x_max":488,"o":"m 29 878 q 203 888 130 888 q 328 875 277 888 q 410 839 379 862 q 458 775 441 815 q 482 692 476 736 q 488 584 488 648 l 488 0 l 307 0 l 307 585 q 282 706 307 671 q 179 741 256 741 q 29 731 131 741 l 29 878 z "},"ש":{"ha":876,"x_min":29,"x_max":850,"o":"m 345 0 l 99 0 l 29 875 l 209 875 l 246 425 q 313 456 292 427 q 340 547 334 484 l 366 875 l 544 875 l 519 549 q 256 296 500 304 l 269 146 l 345 146 q 550 235 474 146 q 639 481 626 324 l 671 875 l 850 875 l 818 482 q 785 305 810 379 q 713 162 757 220 q 653 99 689 131 q 574 47 617 68 q 345 0 476 0 z "},"ת":{"ha":722,"x_min":22,"x_max":653,"o":"m 208 1 q 198 -2 208 1 q 163 -9 189 -5 q 101 -14 137 -14 q 22 5 65 -14 l 22 150 q 65 138 43 138 q 99 147 87 138 q 117 174 111 156 q 124 247 124 201 l 124 724 l 59 711 l 59 856 q 97 865 73 859 q 203 879 122 870 q 353 888 284 888 q 463 882 422 888 q 533 863 503 875 q 584 830 562 850 q 618 787 605 810 q 640 730 632 764 q 653 584 653 674 l 653 0 l 472 0 l 472 585 q 445 708 472 674 q 344 741 418 741 q 305 741 320 741 l 305 247 q 296 111 305 150 q 272 48 286 64 q 243 20 258 33 q 208 1 228 8 z "},"׳":{"ha":285,"x_min":14,"x_max":271,"o":"m 262 875 l 271 860 q 152 535 237 725 l 14 535 q 81 875 59 728 l 262 875 z "},"״":{"ha":580,"x_min":14,"x_max":566,"o":"m 262 875 l 271 860 q 152 535 237 725 l 14 535 q 81 875 59 728 l 262 875 m 557 875 l 566 860 q 447 535 532 725 l 309 535 q 376 875 354 728 l 557 875 z "},"–":{"ha":659,"x_min":47,"x_max":612,"o":"m 612 300 l 47 300 l 47 447 l 612 447 l 612 300 z "},"—":{"ha":1071,"x_min":47,"x_max":1022,"o":"m 1022 300 l 47 300 l 47 447 l 1022 447 l 1022 300 z "},"‘":{"ha":285,"x_min":14,"x_max":271,"o":"m 14 667 q 134 991 54 820 l 271 991 q 230 808 252 916 q 203 652 209 701 l 24 652 l 14 667 z "},"’":{"ha":285,"x_min":14,"x_max":271,"o":"m 261 991 l 271 977 q 151 652 237 844 l 14 652 q 82 991 56 819 l 261 991 z "},"‚":{"ha":375,"x_min":35,"x_max":292,"o":"m 282 161 l 292 146 q 172 -179 256 7 l 35 -179 q 103 161 79 3 l 282 161 z "},"“":{"ha":579,"x_min":14,"x_max":566,"o":"m 14 667 q 134 991 54 820 l 271 991 q 230 808 252 916 q 203 652 209 701 l 24 652 l 14 667 m 428 991 l 566 991 q 497 652 520 807 l 318 652 l 309 667 q 366 841 331 751 q 428 991 400 932 z "},"”":{"ha":579,"x_min":14,"x_max":566,"o":"m 261 991 l 271 977 q 151 652 237 844 l 14 652 q 82 991 56 819 l 261 991 m 555 991 l 566 977 q 446 652 532 846 l 309 652 q 376 991 352 825 l 555 991 z "},"„":{"ha":669,"x_min":35,"x_max":586,"o":"m 282 161 l 292 146 q 172 -179 256 7 l 35 -179 q 103 161 79 3 l 282 161 m 576 161 l 586 146 q 467 -179 550 7 l 329 -179 q 397 161 373 3 l 576 161 z "},"†":{"ha":694,"x_min":77,"x_max":618,"o":"m 393 772 l 618 793 l 618 637 l 393 659 l 431 0 l 250 0 l 288 659 l 77 637 l 77 793 l 288 772 l 250 1055 l 431 1055 l 393 772 z "},"‡":{"ha":694,"x_min":69,"x_max":625,"o":"m 400 800 l 625 821 l 625 665 l 400 686 l 432 533 l 400 370 l 625 390 l 625 235 l 400 256 l 437 0 l 257 0 l 294 256 l 69 235 l 69 390 l 294 370 l 262 533 l 294 686 l 69 665 l 69 821 l 294 800 l 257 1055 l 437 1055 l 400 800 z "},"•":{"ha":509,"x_min":66,"x_max":441,"o":"m 66 508 q 66 558 66 508 q 115 662 66 608 q 254 715 163 715 q 393 661 344 715 q 441 508 441 606 q 392 354 441 409 q 254 298 342 298 q 116 353 165 298 q 66 508 66 408 z "},"…":{"ha":1125,"x_min":75,"x_max":1050,"o":"m 104 175 q 118 190 104 175 q 187 204 132 204 q 271 175 242 204 q 300 93 300 146 q 270 11 300 40 q 187 -18 241 -18 q 104 11 133 -18 q 75 93 75 40 q 104 175 75 146 m 479 175 q 493 190 479 175 q 562 204 507 204 q 646 175 617 204 q 675 93 675 146 q 645 11 675 40 q 562 -18 616 -18 q 479 11 508 -18 q 450 93 450 40 q 479 175 450 146 m 854 175 q 868 190 854 175 q 937 204 882 204 q 1021 175 992 204 q 1050 93 1050 146 q 1020 11 1050 40 q 937 -18 991 -18 q 854 11 883 -18 q 825 93 825 40 q 854 175 825 146 z "},"‰":{"ha":1496,"x_min":43,"x_max":1453,"o":"m 239 1006 q 439 696 439 1006 q 388 463 439 543 q 237 383 336 383 q 91 460 138 383 q 43 693 43 538 q 239 1006 43 1006 m 392 0 l 252 0 l 661 991 l 802 991 l 392 0 m 281 832 q 275 853 281 832 q 240 875 269 875 q 199 832 212 875 q 187 694 187 789 q 199 557 187 600 q 240 514 212 514 q 281 557 269 514 q 294 694 294 600 q 281 832 294 789 m 812 610 q 1013 300 1013 610 q 961 67 1013 147 q 810 -12 909 -12 q 663 65 711 -12 q 615 297 615 142 q 812 610 615 610 m 1253 610 q 1453 300 1453 610 q 1401 67 1453 147 q 1251 -12 1350 -12 q 1105 64 1152 -12 q 1057 297 1057 141 q 1253 610 1057 610 m 812 478 q 772 435 785 478 q 760 298 760 393 q 772 161 760 204 q 814 118 785 118 q 868 298 868 118 q 812 478 868 478 m 1254 478 q 1214 436 1226 478 q 1202 298 1202 393 q 1214 161 1202 203 q 1254 118 1225 118 q 1295 161 1282 118 q 1308 298 1308 204 q 1254 478 1308 478 z "},"‹":{"ha":443,"x_min":50,"x_max":393,"o":"m 393 614 l 244 378 l 393 142 l 258 66 l 50 368 l 50 386 l 258 689 l 393 614 z "},"›":{"ha":443,"x_min":50,"x_max":393,"o":"m 393 386 l 393 368 l 184 66 l 50 142 l 199 378 l 50 614 l 184 689 l 393 386 z "},"⁄":{"ha":136,"x_min":-253,"x_max":389,"o":"m -115 0 l -253 0 l 250 991 l 389 991 l -115 0 z "},"₪":{"ha":1077,"x_min":90,"x_max":1008,"o":"m 90 875 l 400 875 q 622 834 535 875 q 685 786 659 817 q 725 727 711 755 q 747 655 739 699 q 756 577 754 610 q 758 493 758 545 l 758 314 l 586 314 l 586 493 q 576 617 586 582 q 554 668 566 652 q 520 696 541 684 q 400 717 481 717 l 270 717 l 270 0 l 90 0 l 90 875 m 1008 875 l 1008 526 q 957 227 1008 343 q 903 139 937 182 q 822 65 868 95 q 709 18 777 36 q 559 0 642 0 l 341 0 l 341 561 l 521 561 l 521 158 l 559 158 q 779 259 716 158 q 823 373 809 309 q 836 526 836 438 l 836 875 l 1008 875 z "},"€":{"ha":643,"x_min":28,"x_max":629,"o":"m 28 642 l 115 642 q 225 913 141 819 q 439 1007 309 1007 q 541 996 497 1007 q 629 960 585 985 l 568 814 q 446 846 503 846 q 352 793 390 846 q 298 642 314 741 l 498 642 l 498 528 l 289 528 l 289 444 l 468 444 l 468 330 l 300 330 q 457 149 334 149 q 615 199 530 149 l 615 35 q 437 -14 541 -14 q 224 74 306 -14 q 117 330 142 162 l 28 330 l 28 444 l 107 444 l 107 528 l 28 528 l 28 642 z "},"™":{"ha":926,"x_min":8,"x_max":852,"o":"m 343 896 l 228 896 l 228 503 l 123 503 l 123 896 l 8 896 l 8 991 l 343 991 l 343 896 m 852 503 l 749 503 l 749 809 l 750 864 l 747 864 l 661 503 l 561 503 l 478 864 l 473 864 l 476 736 l 476 503 l 375 503 l 375 991 l 539 991 l 611 660 l 690 991 l 852 991 l 852 503 z "},"ﬁ":{"ha":751,"x_min":20,"x_max":682,"o":"m 107 814 q 160 1002 107 941 q 328 1063 213 1063 q 464 1032 401 1063 l 416 895 q 349 911 382 911 q 302 886 316 911 q 288 811 288 862 l 288 755 l 412 755 l 412 612 l 288 612 l 288 0 l 107 0 l 107 612 l 20 612 l 20 703 l 107 757 l 107 814 m 486 952 q 486 975 486 952 q 512 1024 486 998 q 583 1050 538 1050 q 655 1024 629 1050 q 682 952 682 998 q 655 882 682 907 q 584 856 628 856 q 512 882 539 856 q 486 952 486 907 m 673 0 l 493 0 l 493 755 l 673 755 l 673 0 z "},"ﬂ":{"ha":747,"x_min":20,"x_max":672,"o":"m 107 814 q 160 1002 107 941 q 328 1063 213 1063 q 464 1032 401 1063 l 416 895 q 349 911 382 911 q 302 886 316 911 q 288 811 288 862 l 288 755 l 412 755 l 412 612 l 288 612 l 288 0 l 107 0 l 107 612 l 20 612 l 20 703 l 107 757 l 107 814 m 672 0 l 492 0 l 492 1055 l 672 1055 l 672 0 z "},"שׁ":{"ha":876,"x_min":29,"x_max":863,"o":"m 734 1015 q 734 1028 734 1015 q 751 1058 734 1042 q 798 1074 768 1074 q 845 1057 827 1074 q 863 1015 863 1041 q 845 972 863 988 q 798 956 827 956 q 751 971 768 956 q 734 1015 734 987 m 345 0 l 99 0 l 29 875 l 209 875 l 246 425 q 313 456 292 427 q 340 547 334 484 l 366 875 l 544 875 l 519 549 q 256 296 500 304 l 269 146 l 345 146 q 550 235 474 146 q 639 481 626 324 l 671 875 l 850 875 l 818 482 q 785 305 810 379 q 713 162 757 220 q 653 99 689 131 q 574 47 617 68 q 345 0 476 0 z "},"שׂ":{"ha":876,"x_min":22,"x_max":850,"o":"m 22 1015 q 22 1028 22 1015 q 39 1058 22 1042 q 86 1074 56 1074 q 133 1057 115 1074 q 151 1015 151 1041 q 133 972 151 988 q 85 956 115 956 q 39 971 56 956 q 22 1015 22 987 m 345 0 l 99 0 l 29 875 l 209 875 l 246 425 q 313 456 292 427 q 340 547 334 484 l 366 875 l 544 875 l 519 549 q 256 296 500 304 l 269 146 l 345 146 q 550 235 474 146 q 639 481 626 324 l 671 875 l 850 875 l 818 482 q 785 305 810 379 q 713 162 757 220 q 653 99 689 131 q 574 47 617 68 q 345 0 476 0 z "},"שּׁ":{"ha":876,"x_min":29,"x_max":863,"o":"m 734 1015 q 734 1028 734 1015 q 751 1058 734 1042 q 798 1074 768 1074 q 845 1057 827 1074 q 863 1015 863 1041 q 845 972 863 988 q 798 956 827 956 q 751 971 768 956 q 734 1015 734 987 m 345 0 l 99 0 l 29 875 l 209 875 l 246 425 q 313 456 292 427 q 340 547 334 484 l 366 875 l 544 875 l 519 549 q 256 296 500 304 l 269 146 l 345 146 q 550 235 474 146 q 639 481 626 324 l 671 875 l 850 875 l 818 482 q 785 305 810 379 q 713 162 757 220 q 653 99 689 131 q 574 47 617 68 q 345 0 476 0 m 374 264 q 374 278 374 264 q 391 307 374 292 q 438 323 408 323 q 485 307 467 323 q 503 264 503 290 q 485 221 503 237 q 437 205 467 205 q 391 221 408 205 q 374 264 374 236 z "},"שּׂ":{"ha":876,"x_min":22,"x_max":850,"o":"m 22 1015 q 22 1028 22 1015 q 39 1058 22 1042 q 86 1074 56 1074 q 133 1057 115 1074 q 151 1015 151 1041 q 133 972 151 988 q 85 956 115 956 q 39 971 56 956 q 22 1015 22 987 m 345 0 l 99 0 l 29 875 l 209 875 l 246 425 q 313 456 292 427 q 340 547 334 484 l 366 875 l 544 875 l 519 549 q 256 296 500 304 l 269 146 l 345 146 q 550 235 474 146 q 639 481 626 324 l 671 875 l 850 875 l 818 482 q 785 305 810 379 q 713 162 757 220 q 653 99 689 131 q 574 47 617 68 q 345 0 476 0 m 374 264 q 374 278 374 264 q 391 307 374 292 q 438 323 408 323 q 485 307 467 323 q 503 264 503 290 q 485 221 503 237 q 437 205 467 205 q 391 221 408 205 q 374 264 374 236 z "},"אַ":{"ha":694,"x_min":41,"x_max":657,"o":"m 657 875 l 657 562 q 616 395 657 454 q 571 350 600 372 q 503 313 543 328 l 650 0 l 441 0 l 267 415 q 238 315 238 386 l 238 0 l 58 0 l 58 313 q 63 382 58 352 q 81 447 68 412 q 199 555 109 517 l 41 875 l 250 875 l 380 575 l 438 450 q 477 559 476 479 l 477 875 l 657 875 m 481 -233 l 214 -233 l 214 -155 l 481 -155 l 481 -233 z "},"אָ":{"ha":694,"x_min":41,"x_max":657,"o":"m 657 875 l 657 562 q 616 395 657 454 q 571 350 600 372 q 503 313 543 328 l 650 0 l 441 0 l 267 415 q 238 315 238 386 l 238 0 l 58 0 l 58 313 q 63 382 58 352 q 81 447 68 412 q 199 555 109 517 l 41 875 l 250 875 l 380 575 l 438 450 q 477 559 476 479 l 477 875 l 657 875 m 477 -248 l 385 -248 l 385 -385 l 309 -385 l 309 -248 l 218 -248 l 218 -168 l 477 -168 l 477 -248 z "},"אּ":{"ha":694,"x_min":41,"x_max":657,"o":"m 657 875 l 657 562 q 616 395 657 454 q 571 350 600 372 q 503 313 543 328 l 650 0 l 441 0 l 267 415 q 238 315 238 386 l 238 0 l 58 0 l 58 313 q 63 382 58 352 q 81 447 68 412 q 199 555 109 517 l 41 875 l 250 875 l 380 575 l 438 450 q 477 559 476 479 l 477 875 l 657 875 m 257 92 q 257 106 257 92 q 274 136 257 120 q 320 151 291 151 q 368 135 350 151 q 385 92 385 119 q 368 50 385 66 q 320 34 350 34 q 274 49 290 34 q 257 92 257 64 z "},"בּ":{"ha":629,"x_min":57,"x_max":606,"o":"m 57 878 q 211 888 138 888 q 326 882 285 888 q 396 863 366 875 q 447 830 425 850 q 481 787 468 810 q 502 730 494 764 q 515 584 515 674 l 515 146 l 606 146 l 606 0 l 57 0 l 57 146 l 334 146 l 334 585 q 307 708 334 674 q 207 741 280 741 q 73 732 123 741 l 57 730 l 57 878 m 117 431 q 117 445 117 431 q 134 474 117 458 q 181 490 151 490 q 228 473 210 490 q 245 431 245 457 q 228 388 245 404 q 180 372 210 372 q 134 388 151 372 q 117 431 117 403 z "},"גּ":{"ha":533,"x_min":25,"x_max":464,"o":"m 203 737 q 113 722 162 737 l 113 873 q 223 888 159 888 q 331 876 288 888 q 400 842 374 863 q 440 785 425 821 q 459 714 454 750 q 464 628 464 679 l 464 0 l 334 0 l 303 127 l 293 127 q 270 81 288 109 q 232 36 252 54 q 175 2 212 17 q 102 -14 138 -14 q 25 -6 67 -14 l 40 161 q 61 157 42 159 q 96 155 79 155 q 222 182 172 155 q 272 243 260 202 q 283 357 283 283 l 283 628 q 203 737 283 737 m 85 431 q 85 445 85 431 q 102 474 85 458 q 149 490 119 490 q 196 473 178 490 q 214 431 214 457 q 196 388 214 404 q 149 372 178 372 q 102 388 119 372 q 85 431 85 403 z "},"דּ":{"ha":572,"x_min":18,"x_max":560,"o":"m 560 875 l 560 737 q 457 555 457 699 l 457 0 l 277 0 l 277 560 q 287 628 277 597 q 313 675 298 659 q 369 720 343 711 l 379 724 l 379 729 l 18 729 l 18 875 l 560 875 m 81 431 q 81 445 81 431 q 98 474 81 458 q 144 490 115 490 q 191 473 174 490 q 209 431 209 457 q 191 388 209 404 q 144 372 174 372 q 97 388 114 372 q 81 431 81 403 z "},"הּ":{"ha":704,"x_min":77,"x_max":635,"o":"m 192 879 q 232 884 192 879 q 338 888 273 888 q 444 882 404 888 q 514 863 485 875 q 565 830 544 850 q 600 787 587 810 q 621 730 614 764 q 635 584 635 674 l 635 0 l 454 0 l 454 585 q 427 708 454 674 q 326 741 399 741 q 214 735 276 741 q 114 722 151 728 l 77 715 l 77 859 q 192 879 111 870 m 77 0 l 77 558 l 258 558 l 258 0 l 77 0 m 292 431 q 292 445 292 431 q 309 474 292 458 q 356 490 326 490 q 403 473 385 490 q 420 431 420 457 q 403 388 420 404 q 355 372 385 372 q 309 388 326 372 q 292 431 292 403 z "},"וּ":{"ha":334,"x_min":-32,"x_max":257,"o":"m 77 0 l 77 875 l 257 875 l 257 0 l 77 0 m -32 418 q -32 428 -32 418 q -21 450 -32 439 q 9 462 -10 462 q 40 450 28 462 q 52 418 52 437 q 40 386 52 398 q 9 374 28 374 q -21 386 -10 374 q -32 418 -32 397 z "},"זּ":{"ha":387,"x_min":-35,"x_max":367,"o":"m 367 875 l 367 729 q 328 652 353 706 q 289 531 303 599 q 273 416 275 463 q 271 294 271 369 l 271 0 l 90 0 l 90 294 q 119 530 90 436 q 180 664 148 622 q 231 719 213 707 l 239 724 l 239 729 l 66 729 l 66 875 l 367 875 m -35 418 q -35 428 -35 418 q -24 450 -35 439 q 6 462 -13 462 q 37 450 26 462 q 49 418 49 437 q 37 386 49 398 q 6 374 26 374 q -24 386 -13 374 q -35 418 -35 397 z "},"טּ":{"ha":704,"x_min":69,"x_max":654,"o":"m 315 882 q 391 888 349 888 q 477 868 434 888 q 548 813 519 848 q 598 733 577 777 q 631 637 620 690 q 654 447 654 536 q 642 289 654 357 q 612 176 631 222 q 568 95 594 130 q 516 40 543 60 q 460 7 490 20 q 408 -9 431 -5 q 361 -14 385 -14 q 315 -9 338 -14 q 262 7 292 -5 q 207 40 233 20 q 155 95 180 60 q 111 175 129 130 q 69 437 69 279 l 69 873 l 254 873 l 254 438 q 285 194 254 262 q 319 148 300 161 q 361 134 337 134 q 404 148 386 134 q 438 194 422 161 q 461 289 453 227 q 469 438 469 350 q 461 587 469 526 q 438 681 453 648 q 404 728 422 714 q 361 741 386 741 l 315 737 l 315 882 m 288 431 q 288 445 288 431 q 305 474 288 458 q 352 490 322 490 q 399 473 381 490 q 416 431 416 457 q 399 388 416 404 q 351 372 381 372 q 305 388 321 372 q 288 431 288 403 z "},"יּ":{"ha":334,"x_min":-32,"x_max":257,"o":"m 77 296 l 77 875 l 257 875 l 257 471 l 146 296 l 77 296 m -32 573 q -32 583 -32 573 q -21 605 -32 593 q 9 616 -10 616 q 40 604 28 616 q 52 572 52 592 q 40 541 52 553 q 9 529 28 529 q -21 541 -10 529 q -32 573 -32 552 z "},"ךּ":{"ha":557,"x_min":37,"x_max":488,"o":"m 37 870 q 197 888 118 888 q 327 866 276 888 q 407 809 377 844 q 456 722 437 774 q 481 617 475 669 q 488 500 488 564 l 488 -334 l 307 -334 l 307 500 q 283 661 307 595 q 249 714 271 695 q 195 734 226 734 q 37 720 138 734 l 37 870 m 81 431 q 81 445 81 431 q 98 474 81 458 q 144 490 115 490 q 191 473 174 490 q 209 431 209 457 q 191 388 209 404 q 144 372 174 372 q 97 388 114 372 q 81 431 81 403 z "},"כּ":{"ha":538,"x_min":37,"x_max":488,"o":"m 37 870 q 197 888 118 888 q 327 866 276 888 q 407 809 377 844 q 456 722 437 774 q 481 617 475 669 q 488 500 488 564 l 488 354 q 452 149 488 236 q 401 65 432 100 q 321 8 370 30 q 209 -14 272 -14 q 37 7 107 -14 l 37 163 q 195 141 111 141 q 302 354 302 141 l 302 500 q 195 734 302 734 q 37 723 140 734 l 37 870 m 81 431 q 81 445 81 431 q 98 474 81 458 q 144 490 115 490 q 191 473 174 490 q 209 431 209 457 q 191 388 209 404 q 144 372 174 372 q 97 388 114 372 q 81 431 81 403 z "},"לּ":{"ha":558,"x_min":29,"x_max":529,"o":"m 529 875 l 529 753 l 414 337 l 345 0 l 170 0 l 239 337 l 347 729 l 29 729 l 29 1055 l 210 1055 l 210 875 l 529 875 m 40 431 q 40 445 40 431 q 57 474 40 458 q 103 490 74 490 q 151 473 133 490 q 168 431 168 457 q 151 388 168 404 q 103 372 133 372 q 57 388 73 372 q 40 431 40 403 z "},"מּ":{"ha":734,"x_min":29,"x_max":665,"o":"m 310 842 q 321 850 310 842 q 370 874 332 859 q 452 888 408 888 q 531 874 496 888 q 588 833 566 860 q 627 772 611 806 q 650 693 642 739 q 665 507 665 608 l 665 0 l 321 0 l 321 146 l 484 146 l 484 506 q 390 736 484 736 q 340 722 363 736 q 304 686 317 707 q 264 610 273 642 l 260 595 l 209 0 l 29 0 l 77 568 q 79 624 79 595 q 54 798 79 709 l 30 875 l 201 875 q 222 814 212 849 l 236 753 l 245 753 q 271 799 253 773 q 310 842 289 824 m 303 431 q 303 445 303 431 q 320 474 303 458 q 367 490 337 490 q 414 473 396 490 q 431 431 431 457 q 414 388 431 404 q 366 372 396 372 q 320 388 336 372 q 303 431 303 403 z "},"נּ":{"ha":485,"x_min":9,"x_max":416,"o":"m 197 728 q 151 737 180 737 q 69 724 121 737 l 69 875 q 179 888 133 888 q 260 882 224 888 q 320 864 295 875 q 362 834 345 852 q 390 795 380 815 q 406 746 400 775 q 416 628 416 701 l 416 248 q 407 122 416 184 q 391 30 399 60 l 382 0 l 29 0 l 29 146 l 223 146 q 235 302 235 198 l 235 628 q 197 728 235 706 m 9 431 q 9 445 9 431 q 26 474 9 458 q 72 490 43 490 q 119 473 102 490 q 137 431 137 457 q 119 388 137 404 q 72 372 102 372 q 25 388 42 372 q 9 431 9 403 z "},"סּ":{"ha":685,"x_min":50,"x_max":635,"o":"m 342 888 q 432 872 392 888 q 497 836 471 856 q 549 781 524 816 q 593 700 575 746 q 623 587 612 654 q 635 438 635 519 q 623 289 635 357 q 593 176 612 222 q 549 95 575 130 q 497 40 524 60 q 441 7 471 20 q 389 -9 412 -5 q 342 -14 366 -14 q 296 -9 319 -14 q 243 7 273 -5 q 188 40 214 20 q 136 95 161 60 q 92 176 110 130 q 50 438 50 279 q 80 606 50 522 q 149 726 111 690 l 149 731 l 59 725 l 59 869 q 342 888 178 888 m 349 741 q 295 735 323 741 q 247 617 260 686 q 235 449 235 548 q 243 289 235 350 q 266 194 251 227 q 300 148 281 161 q 342 134 318 134 q 385 148 367 134 q 419 194 404 161 q 442 289 434 227 q 450 438 450 350 q 442 587 450 526 q 419 681 434 648 q 349 741 391 741 m 279 431 q 279 445 279 431 q 296 474 279 458 q 342 490 313 490 q 389 473 372 490 q 407 431 407 457 q 389 388 407 404 q 342 372 372 372 q 295 388 312 372 q 279 431 279 403 z "},"ףּ":{"ha":682,"x_min":37,"x_max":612,"o":"m 91 385 q 79 400 91 385 q 52 464 68 414 q 37 584 37 514 q 60 715 37 654 q 125 812 84 775 q 320 888 207 888 q 409 872 370 888 q 475 836 449 856 q 527 781 501 816 q 571 700 553 746 q 612 438 612 597 l 612 -334 l 432 -334 l 432 438 q 399 681 432 616 q 363 727 382 713 q 316 741 345 741 q 266 721 288 741 q 235 671 243 701 q 220 586 220 623 q 317 436 220 454 l 342 431 l 308 289 l 272 294 q 210 307 238 298 q 148 335 181 315 q 91 385 114 355 m 277 585 q 277 599 277 585 q 294 629 277 613 q 341 644 311 644 q 388 628 370 644 q 406 585 406 612 q 388 543 406 559 q 340 527 370 527 q 294 542 311 527 q 277 585 277 557 z "},"פּ":{"ha":662,"x_min":37,"x_max":612,"o":"m 91 385 q 79 400 91 385 q 52 464 68 414 q 37 584 37 514 q 60 715 37 654 q 125 812 84 775 q 320 888 207 888 q 409 872 370 888 q 475 836 449 856 q 527 781 501 816 q 571 700 553 746 q 601 587 589 654 q 612 438 612 519 q 601 289 612 357 q 571 176 589 222 q 527 95 553 130 q 475 40 501 60 q 419 7 449 20 q 317 -14 370 -14 q 212 -9 264 -14 q 135 1 159 -4 l 111 5 l 111 157 q 320 134 241 134 q 363 148 345 134 q 396 194 381 161 q 420 289 412 227 q 428 438 428 350 q 420 587 428 526 q 396 681 412 648 q 363 728 381 714 q 316 741 345 741 q 266 721 288 741 q 235 671 243 701 q 220 586 220 623 q 317 436 220 454 l 342 431 l 308 289 l 272 294 q 210 307 238 298 q 148 335 181 315 q 91 385 114 355 m 261 585 q 261 599 261 585 q 278 629 261 613 q 325 644 295 644 q 372 628 354 644 q 389 585 389 612 q 372 543 389 559 q 324 527 354 527 q 278 542 294 527 q 261 585 261 557 z "},"צּ":{"ha":680,"x_min":39,"x_max":651,"o":"m 610 0 l 46 0 l 46 146 l 281 146 l 397 136 l 397 139 l 285 311 l 39 875 l 227 875 l 387 496 q 431 571 415 531 q 454 683 447 612 l 470 874 l 651 874 l 637 713 q 630 653 633 677 q 616 580 627 629 q 588 494 604 531 q 540 412 571 456 q 467 334 509 367 l 610 107 l 610 0 m 81 328 q 81 341 81 328 q 98 371 81 355 q 144 387 115 387 q 191 370 174 387 q 209 328 209 354 q 191 285 209 301 q 144 269 174 269 q 97 284 114 269 q 81 328 81 300 z "},"קּ":{"ha":717,"x_min":91,"x_max":688,"o":"m 519 23 l 519 0 l 340 0 l 340 23 q 392 342 340 149 l 492 729 l 91 729 l 91 875 l 688 875 l 688 762 l 580 349 q 534 155 549 229 q 519 23 519 81 m 271 471 q 271 485 271 471 q 288 515 271 499 q 335 530 305 530 q 382 514 364 530 q 399 471 399 498 q 382 429 399 445 q 334 413 364 413 q 288 428 304 413 q 271 471 271 444 m 91 -334 l 91 524 l 271 524 l 271 -334 l 91 -334 z "},"רּ":{"ha":557,"x_min":29,"x_max":488,"o":"m 29 878 q 203 888 130 888 q 328 875 277 888 q 410 839 379 862 q 458 775 441 815 q 482 692 476 736 q 488 584 488 648 l 488 0 l 307 0 l 307 585 q 282 706 307 671 q 179 741 256 741 q 29 731 131 741 l 29 878 m 94 431 q 94 445 94 431 q 111 474 94 458 q 158 490 128 490 q 205 473 187 490 q 222 431 222 457 q 205 388 222 404 q 157 372 187 372 q 111 388 127 372 q 94 431 94 403 z "},"שּ":{"ha":876,"x_min":29,"x_max":850,"o":"m 345 0 l 99 0 l 29 875 l 209 875 l 246 425 q 313 456 292 427 q 340 547 334 484 l 366 875 l 544 875 l 519 549 q 256 296 500 304 l 269 146 l 345 146 q 550 235 474 146 q 639 481 626 324 l 671 875 l 850 875 l 818 482 q 785 305 810 379 q 713 162 757 220 q 653 99 689 131 q 574 47 617 68 q 345 0 476 0 m 374 264 q 374 278 374 264 q 391 307 374 292 q 438 323 408 323 q 485 307 467 323 q 503 264 503 290 q 485 221 503 237 q 437 205 467 205 q 391 221 408 205 q 374 264 374 236 z "},"תּ":{"ha":722,"x_min":22,"x_max":653,"o":"m 208 1 q 198 -2 208 1 q 163 -9 189 -5 q 101 -14 137 -14 q 22 5 65 -14 l 22 150 q 65 138 43 138 q 99 147 87 138 q 117 174 111 156 q 124 247 124 201 l 124 724 l 59 711 l 59 856 q 97 865 73 859 q 203 879 122 870 q 353 888 284 888 q 463 882 422 888 q 533 863 503 875 q 584 830 562 850 q 618 787 605 810 q 640 730 632 764 q 653 584 653 674 l 653 0 l 472 0 l 472 585 q 445 708 472 674 q 344 741 418 741 q 305 741 320 741 l 305 247 q 296 111 305 150 q 272 48 286 64 q 243 20 258 33 q 208 1 228 8 m 325 431 q 325 445 325 431 q 342 474 325 458 q 388 490 359 490 q 435 473 418 490 q 453 431 453 457 q 435 388 453 404 q 388 372 418 372 q 341 388 358 372 q 325 431 325 403 z "},"וֹ":{"ha":334,"x_min":60,"x_max":257,"o":"m 60 1015 q 60 1028 60 1015 q 77 1058 60 1042 q 123 1074 94 1074 q 170 1057 153 1074 q 188 1015 188 1041 q 170 972 188 988 q 123 956 153 956 q 76 971 93 956 q 60 1015 60 987 m 77 0 l 77 875 l 257 875 l 257 0 l 77 0 z "}," ":{"ha":343,"x_min":0,"x_max":0,"o":""}}}
